<?xml version="1.0" encoding="us-ascii" standalone="no"?><svg xmlns="http://www.w3.org/2000/svg" xmlns:xlink="http://www.w3.org/1999/xlink" contentStyleType="text/css" height="1845px" preserveAspectRatio="none" style="width:3121px;height:1845px;background:#FFFFFF;" version="1.1" viewBox="0 0 3121 1845" width="3121px" zoomAndPan="magnify"><defs/><g><!--cluster nucleo--><g id="cluster_nucleo"><path d="M1630.5,23.5 L1679.5,23.5 A3.75,3.75 0 0 1 1682,26 L1689,47.1094 L2111.5,47.1094 A2.5,2.5 0 0 1 2114,49.6094 L2114,668.5 A2.5,2.5 0 0 1 2111.5,671 L1630.5,671 A2.5,2.5 0 0 1 1628,668.5 L1628,26 A2.5,2.5 0 0 1 1630.5,23.5 " fill="none" style="stroke:#000000;stroke-width:1.5;"/><line style="stroke:#000000;stroke-width:1.5;" x1="1628" x2="1689" y1="47.1094" y2="47.1094"/><text fill="#000000" font-family="sans-serif" font-size="14" font-weight="bold" lengthAdjust="spacing" textLength="48" x="1632" y="40.0332">nucleo</text></g><!--cluster hardware--><g id="cluster_hardware"><path d="M8.5,872.5 L75.5,872.5 A3.75,3.75 0 0 1 78,875 L85,896.1094 L960.5,896.1094 A2.5,2.5 0 0 1 963,898.6094 L963,1836 A2.5,2.5 0 0 1 960.5,1838.5 L8.5,1838.5 A2.5,2.5 0 0 1 6,1836 L6,875 A2.5,2.5 0 0 1 8.5,872.5 " fill="none" style="stroke:#000000;stroke-width:1.5;"/><line style="stroke:#000000;stroke-width:1.5;" x1="6" x2="85" y1="896.1094" y2="896.1094"/><text fill="#000000" font-family="sans-serif" font-size="14" font-weight="bold" lengthAdjust="spacing" textLength="66" x="10" y="889.0332">hardware</text></g><!--cluster comportamento--><g id="cluster_comportamento"><path d="M989.5,695 L1100.5,695 A3.75,3.75 0 0 1 1103,697.5 L1110,718.6094 L2221.5,718.6094 A2.5,2.5 0 0 1 2224,721.1094 L2224,1548 A2.5,2.5 0 0 1 2221.5,1550.5 L989.5,1550.5 A2.5,2.5 0 0 1 987,1548 L987,697.5 A2.5,2.5 0 0 1 989.5,695 " fill="none" style="stroke:#000000;stroke-width:1.5;"/><line style="stroke:#000000;stroke-width:1.5;" x1="987" x2="1110" y1="718.6094" y2="718.6094"/><text fill="#000000" font-family="sans-serif" font-size="14" font-weight="bold" lengthAdjust="spacing" textLength="110" x="991" y="711.5332">comportamento</text></g><!--cluster driver--><g id="cluster_driver"><path d="M2250.5,408 L2294.5,408 A3.75,3.75 0 0 1 2297,410.5 L2304,431.6094 L2677.5,431.6094 A2.5,2.5 0 0 1 2680,434.1094 L2680,846 A2.5,2.5 0 0 1 2677.5,848.5 L2250.5,848.5 A2.5,2.5 0 0 1 2248,846 L2248,410.5 A2.5,2.5 0 0 1 2250.5,408 " fill="none" style="stroke:#000000;stroke-width:1.5;"/><line style="stroke:#000000;stroke-width:1.5;" x1="2248" x2="2304" y1="431.6094" y2="431.6094"/><text fill="#000000" font-family="sans-serif" font-size="14" font-weight="bold" lengthAdjust="spacing" textLength="43" x="2252" y="424.5332">driver</text></g><!--cluster firmware--><g id="cluster_firmware"><path d="M2706.5,6 L2768.5,6 A3.75,3.75 0 0 1 2771,8.5 L2778,29.6094 L3111.5,29.6094 A2.5,2.5 0 0 1 3114,32.1094 L3114,624.5 A2.5,2.5 0 0 1 3111.5,627 L2706.5,627 A2.5,2.5 0 0 1 2704,624.5 L2704,8.5 A2.5,2.5 0 0 1 2706.5,6 " fill="none" style="stroke:#000000;stroke-width:1.5;"/><line style="stroke:#000000;stroke-width:1.5;" x1="2704" x2="2778" y1="29.6094" y2="29.6094"/><text fill="#000000" font-family="sans-serif" font-size="14" font-weight="bold" lengthAdjust="spacing" textLength="61" x="2708" y="22.5332">firmware</text></g><!--class ProjetoIoT--><g id="elem_ProjetoIoT"><rect codeLine="5" fill="#F1F1F1" height="347.3594" id="ProjetoIoT" rx="2.5" ry="2.5" style="stroke:#181818;stroke-width:0.5;" width="453" x="1644.5" y="308"/><ellipse cx="1834.25" cy="324" fill="#ADD1B2" rx="11" ry="11" style="stroke:#181818;stroke-width:1.0;"/><path d="M1837.0156,319.875 Q1837.1719,319.6563 1837.3594,319.5469 Q1837.5469,319.4375 1837.7656,319.4375 Q1838.1406,319.4375 1838.375,319.7031 Q1838.6094,319.9531 1838.6094,320.5625 L1838.6094,322.0156 Q1838.6094,322.625 1838.375,322.8906 Q1838.1406,323.1563 1837.7656,323.1563 Q1837.4219,323.1563 1837.2188,322.9531 Q1837.0156,322.7656 1836.9063,322.25 Q1836.8594,321.8906 1836.6719,321.7031 Q1836.3438,321.3281 1835.7344,321.1094 Q1835.125,320.8906 1834.5,320.8906 Q1833.7344,320.8906 1833.0938,321.2188 Q1832.4688,321.5469 1831.9688,322.2969 Q1831.4844,323.0469 1831.4844,324.0781 L1831.4844,325.1719 Q1831.4844,326.4063 1832.375,327.2344 Q1833.2656,328.0469 1834.8594,328.0469 Q1835.7969,328.0469 1836.4531,327.7969 Q1836.8438,327.6406 1837.2656,327.2031 Q1837.5313,326.9375 1837.6719,326.8594 Q1837.8281,326.7813 1838.0313,326.7813 Q1838.3594,326.7813 1838.6094,327.0469 Q1838.875,327.2969 1838.875,327.6406 Q1838.875,327.9844 1838.5313,328.3906 Q1838.0313,328.9688 1837.2344,329.2969 Q1836.1563,329.75 1834.8594,329.75 Q1833.3438,329.75 1832.1406,329.125 Q1831.1563,328.625 1830.4688,327.5625 Q1829.7813,326.4844 1829.7813,325.2031 L1829.7813,324.0469 Q1829.7813,322.7188 1830.3906,321.5781 Q1831.0156,320.4219 1832.1094,319.8125 Q1833.2031,319.1875 1834.4375,319.1875 Q1835.1719,319.1875 1835.8125,319.3594 Q1836.4688,319.5156 1837.0156,319.875 Z " fill="#000000"/><text fill="#000000" font-family="sans-serif" font-size="14" lengthAdjust="spacing" textLength="65" x="1854.75" y="329.7285">ProjetoIoT</text><line style="stroke:#181818;stroke-width:0.5;" x1="1645.5" x2="2096.5" y1="340" y2="340"/><text fill="#000000" font-family="sans-serif" font-size="14" lengthAdjust="spacing" textLength="97" x="1650.5" y="358.5332">-sNome : String</text><text fill="#000000" font-family="sans-serif" font-size="14" lengthAdjust="spacing" textLength="175" x="1650.5" y="376.1426">-oControlador : Controlador</text><text fill="#000000" font-family="sans-serif" font-size="14" lengthAdjust="spacing" textLength="292" x="1650.5" y="393.752">-aComponentes : List&lt;ComponenteHardware&gt;</text><text fill="#000000" font-family="sans-serif" font-size="14" lengthAdjust="spacing" textLength="214" x="1650.5" y="411.3613">-aConnections : List&lt;Connection&gt;</text><text fill="#000000" font-family="sans-serif" font-size="14" lengthAdjust="spacing" textLength="148" x="1650.5" y="428.9707">-aRegras : List&lt;Regra&gt;</text><line style="stroke:#181818;stroke-width:0.5;" x1="1645.5" x2="2096.5" y1="436.0469" y2="436.0469"/><text fill="#000000" font-family="sans-serif" font-size="14" lengthAdjust="spacing" textLength="175" x="1650.5" y="454.5801">+ProjetoIoT(sNome : String)</text><text fill="#000000" font-family="sans-serif" font-size="14" lengthAdjust="spacing" textLength="337" x="1650.5" y="472.1895">+controlador(oControlador : Controlador) : ProjetoIoT</text><text fill="#000000" font-family="sans-serif" font-size="14" lengthAdjust="spacing" textLength="441" x="1650.5" y="489.7988">+componentes(aComponentes : ComponenteHardware...) : ProjetoIoT</text><text fill="#000000" font-family="sans-serif" font-size="14" lengthAdjust="spacing" textLength="338" x="1650.5" y="507.4082">+conexoes(aConnections : Connection...) : ProjetoIoT</text><text fill="#000000" font-family="sans-serif" font-size="14" lengthAdjust="spacing" textLength="253" x="1650.5" y="525.0176">+regras(aRegras : Regra...) : ProjetoIoT</text><text fill="#000000" font-family="sans-serif" font-size="14" lengthAdjust="spacing" textLength="125" x="1650.5" y="542.627">+build() : ProjetoIoT</text><text fill="#000000" font-family="sans-serif" font-size="14" lengthAdjust="spacing" textLength="123" x="1650.5" y="560.2363">+getNome() : String</text><text fill="#000000" font-family="sans-serif" font-size="14" lengthAdjust="spacing" textLength="200" x="1650.5" y="577.8457">+getControlador() : Controlador</text><text fill="#000000" font-family="sans-serif" font-size="14" lengthAdjust="spacing" textLength="317" x="1650.5" y="595.4551">+getComponentes() : List&lt;ComponenteHardware&gt;</text><text fill="#000000" font-family="sans-serif" font-size="14" lengthAdjust="spacing" textLength="239" x="1650.5" y="613.0645">+getConnections() : List&lt;Connection&gt;</text><text fill="#000000" font-family="sans-serif" font-size="14" lengthAdjust="spacing" textLength="173" x="1650.5" y="630.6738">+getRegras() : List&lt;Regra&gt;</text><text fill="#000000" font-family="sans-serif" font-size="14" lengthAdjust="spacing" textLength="325" x="1650.5" y="648.2832">+pinoDe(sComponente : String) : Optional&lt;Integer&gt;</text></g><!--class Principal--><g id="elem_Principal"><rect codeLine="25" fill="#F1F1F1" height="171.2656" id="Principal" rx="2.5" ry="2.5" style="stroke:#181818;stroke-width:0.5;" width="375" x="1722.5" y="59.5"/><ellipse cx="1878.75" cy="75.5" fill="#ADD1B2" rx="11" ry="11" style="stroke:#181818;stroke-width:1.0;"/><path d="M1881.5156,71.375 Q1881.6719,71.1563 1881.8594,71.0469 Q1882.0469,70.9375 1882.2656,70.9375 Q1882.6406,70.9375 1882.875,71.2031 Q1883.1094,71.4531 1883.1094,72.0625 L1883.1094,73.5156 Q1883.1094,74.125 1882.875,74.3906 Q1882.6406,74.6563 1882.2656,74.6563 Q1881.9219,74.6563 1881.7188,74.4531 Q1881.5156,74.2656 1881.4063,73.75 Q1881.3594,73.3906 1881.1719,73.2031 Q1880.8438,72.8281 1880.2344,72.6094 Q1879.625,72.3906 1879,72.3906 Q1878.2344,72.3906 1877.5938,72.7188 Q1876.9688,73.0469 1876.4688,73.7969 Q1875.9844,74.5469 1875.9844,75.5781 L1875.9844,76.6719 Q1875.9844,77.9063 1876.875,78.7344 Q1877.7656,79.5469 1879.3594,79.5469 Q1880.2969,79.5469 1880.9531,79.2969 Q1881.3438,79.1406 1881.7656,78.7031 Q1882.0313,78.4375 1882.1719,78.3594 Q1882.3281,78.2813 1882.5313,78.2813 Q1882.8594,78.2813 1883.1094,78.5469 Q1883.375,78.7969 1883.375,79.1406 Q1883.375,79.4844 1883.0313,79.8906 Q1882.5313,80.4688 1881.7344,80.7969 Q1880.6563,81.25 1879.3594,81.25 Q1877.8438,81.25 1876.6406,80.625 Q1875.6563,80.125 1874.9688,79.0625 Q1874.2813,77.9844 1874.2813,76.7031 L1874.2813,75.5469 Q1874.2813,74.2188 1874.8906,73.0781 Q1875.5156,71.9219 1876.6094,71.3125 Q1877.7031,70.6875 1878.9375,70.6875 Q1879.6719,70.6875 1880.3125,70.8594 Q1880.9688,71.0156 1881.5156,71.375 Z " fill="#000000"/><text fill="#000000" font-family="sans-serif" font-size="14" lengthAdjust="spacing" textLength="54" x="1899.25" y="81.2285">Principal</text><line style="stroke:#181818;stroke-width:0.5;" x1="1723.5" x2="2096.5" y1="91.5" y2="91.5"/><text fill="#000000" font-family="sans-serif" font-size="14" lengthAdjust="spacing" textLength="221" x="1728.5" y="110.0332">-oRegistroDrivers : RegistroDrivers</text><text fill="#000000" font-family="sans-serif" font-size="14" lengthAdjust="spacing" textLength="253" x="1728.5" y="127.6426">-oConfiguracao : ConfiguracaoFirmware</text><line style="stroke:#181818;stroke-width:0.5;" x1="1723.5" x2="2096.5" y1="134.7188" y2="134.7188"/><text fill="#000000" font-family="sans-serif" font-size="14" lengthAdjust="spacing" text-decoration="underline" textLength="157" x="1728.5" y="153.252">+getInstance() : Principal</text><text fill="#000000" font-family="sans-serif" font-size="14" lengthAdjust="spacing" textLength="271" x="1728.5" y="170.8613">+registrarDriver(oDriver : Driver) : Principal</text><text fill="#000000" font-family="sans-serif" font-size="14" lengthAdjust="spacing" textLength="278" x="1728.5" y="188.4707">+getConfiguracao() : ConfiguracaoFirmware</text><text fill="#000000" font-family="sans-serif" font-size="14" lengthAdjust="spacing" textLength="363" x="1728.5" y="206.0801">+gerarFirmware(oProjeto : ProjetoIoT) : GeradorFirmware</text><text fill="#000000" font-family="sans-serif" font-size="14" lengthAdjust="spacing" textLength="169" x="1728.5" y="223.6895">+getDiretorioSaida() : Path</text></g><!--class ComponenteHardware--><g id="elem_ComponenteHardware"><rect codeLine="37" fill="#F1F1F1" height="136.0469" id="ComponenteHardware" rx="2.5" ry="2.5" style="stroke:#181818;stroke-width:0.5;" width="219" x="379.5" y="1192.5"/><ellipse cx="414.75" cy="1208.5" fill="#A9DCDF" rx="11" ry="11" style="stroke:#181818;stroke-width:1.0;"/><path d="M416.9375,1210.2656 L412.7969,1210.2656 L412.375,1211.2969 L412.7969,1211.2969 Q413.4063,1211.2969 413.6719,1211.5313 Q413.9375,1211.7656 413.9375,1212.1563 Q413.9375,1212.5313 413.6719,1212.7656 Q413.4063,1213 412.7969,1213 L410.5,1213 Q409.8906,1213 409.6406,1212.7656 Q409.375,1212.5313 409.375,1212.1406 Q409.375,1211.7656 409.6563,1211.5313 Q409.9219,1211.2813 410.5469,1211.2969 L413.2188,1204.6406 L412.1094,1204.6406 Q411.5,1204.6406 411.2344,1204.4063 Q410.9688,1204.1719 410.9688,1203.7813 Q410.9688,1203.4063 411.2344,1203.1719 Q411.5,1202.9375 412.1094,1202.9375 L415.7813,1202.9375 L419.1719,1211.2969 Q419.7656,1211.2969 419.9531,1211.4375 Q420.3438,1211.7031 420.3438,1212.1563 Q420.3438,1212.5313 420.0781,1212.7656 Q419.8281,1213 419.2188,1213 L416.9219,1213 Q416.3125,1213 416.0469,1212.7656 Q415.7813,1212.5313 415.7813,1212.1406 Q415.7813,1211.7656 416.0469,1211.5313 Q416.3125,1211.2969 416.9219,1211.2969 L417.3438,1211.2969 L416.9375,1210.2656 Z M416.2188,1208.5625 L414.8594,1205.1875 L413.4844,1208.5625 L416.2188,1208.5625 Z " fill="#000000"/><text fill="#000000" font-family="sans-serif" font-size="14" font-style="italic" lengthAdjust="spacing" textLength="142" x="433.25" y="1214.2285">ComponenteHardware</text><line style="stroke:#181818;stroke-width:0.5;" x1="380.5" x2="597.5" y1="1224.5" y2="1224.5"/><text fill="#000000" font-family="sans-serif" font-size="14" lengthAdjust="spacing" textLength="97" x="385.5" y="1243.0332">-sNome : String</text><text fill="#000000" font-family="sans-serif" font-size="14" lengthAdjust="spacing" textLength="99" x="385.5" y="1260.6426">-sDriver : String</text><line style="stroke:#181818;stroke-width:0.5;" x1="380.5" x2="597.5" y1="1267.7188" y2="1267.7188"/><text fill="#000000" font-family="sans-serif" font-size="14" lengthAdjust="spacing" textLength="123" x="385.5" y="1286.252">+getNome() : String</text><text fill="#000000" font-family="sans-serif" font-size="14" lengthAdjust="spacing" textLength="125" x="385.5" y="1303.8613">+getDriver() : String</text><text fill="#000000" font-family="sans-serif" font-size="14" lengthAdjust="spacing" textLength="207" x="385.5" y="1321.4707">#setDriver(sDriver : String) : void</text></g><!--class Controlador--><g id="elem_Controlador"><rect codeLine="45" fill="#F1F1F1" height="75.2188" id="Controlador" rx="2.5" ry="2.5" style="stroke:#181818;stroke-width:0.5;" width="284" x="59" y="1424"/><ellipse cx="159.25" cy="1440" fill="#ADD1B2" rx="11" ry="11" style="stroke:#181818;stroke-width:1.0;"/><path d="M162.0156,1435.875 Q162.1719,1435.6563 162.3594,1435.5469 Q162.5469,1435.4375 162.7656,1435.4375 Q163.1406,1435.4375 163.375,1435.7031 Q163.6094,1435.9531 163.6094,1436.5625 L163.6094,1438.0156 Q163.6094,1438.625 163.375,1438.8906 Q163.1406,1439.1563 162.7656,1439.1563 Q162.4219,1439.1563 162.2188,1438.9531 Q162.0156,1438.7656 161.9063,1438.25 Q161.8594,1437.8906 161.6719,1437.7031 Q161.3438,1437.3281 160.7344,1437.1094 Q160.125,1436.8906 159.5,1436.8906 Q158.7344,1436.8906 158.0938,1437.2188 Q157.4688,1437.5469 156.9688,1438.2969 Q156.4844,1439.0469 156.4844,1440.0781 L156.4844,1441.1719 Q156.4844,1442.4063 157.375,1443.2344 Q158.2656,1444.0469 159.8594,1444.0469 Q160.7969,1444.0469 161.4531,1443.7969 Q161.8438,1443.6406 162.2656,1443.2031 Q162.5313,1442.9375 162.6719,1442.8594 Q162.8281,1442.7813 163.0313,1442.7813 Q163.3594,1442.7813 163.6094,1443.0469 Q163.875,1443.2969 163.875,1443.6406 Q163.875,1443.9844 163.5313,1444.3906 Q163.0313,1444.9688 162.2344,1445.2969 Q161.1563,1445.75 159.8594,1445.75 Q158.3438,1445.75 157.1406,1445.125 Q156.1563,1444.625 155.4688,1443.5625 Q154.7813,1442.4844 154.7813,1441.2031 L154.7813,1440.0469 Q154.7813,1438.7188 155.3906,1437.5781 Q156.0156,1436.4219 157.1094,1435.8125 Q158.2031,1435.1875 159.4375,1435.1875 Q160.1719,1435.1875 160.8125,1435.3594 Q161.4688,1435.5156 162.0156,1435.875 Z " fill="#000000"/><text fill="#000000" font-family="sans-serif" font-size="14" lengthAdjust="spacing" textLength="75" x="179.75" y="1445.7285">Controlador</text><line style="stroke:#181818;stroke-width:0.5;" x1="60" x2="342" y1="1456" y2="1456"/><text fill="#000000" font-family="sans-serif" font-size="14" lengthAdjust="spacing" textLength="272" x="65" y="1474.5332">+setPortas(aPortas : Porta...) : Controlador</text><text fill="#000000" font-family="sans-serif" font-size="14" lengthAdjust="spacing" textLength="163" x="65" y="1492.1426">+getPortas() : List&lt;Porta&gt;</text></g><!--class Sensor--><g id="elem_Sensor"><rect codeLine="50" fill="#F1F1F1" height="92.8281" id="Sensor" rx="2.5" ry="2.5" style="stroke:#181818;stroke-width:0.5;" width="311" x="635.5" y="1415"/><ellipse cx="764.25" cy="1431" fill="#ADD1B2" rx="11" ry="11" style="stroke:#181818;stroke-width:1.0;"/><path d="M767.0156,1426.875 Q767.1719,1426.6563 767.3594,1426.5469 Q767.5469,1426.4375 767.7656,1426.4375 Q768.1406,1426.4375 768.375,1426.7031 Q768.6094,1426.9531 768.6094,1427.5625 L768.6094,1429.0156 Q768.6094,1429.625 768.375,1429.8906 Q768.1406,1430.1563 767.7656,1430.1563 Q767.4219,1430.1563 767.2188,1429.9531 Q767.0156,1429.7656 766.9063,1429.25 Q766.8594,1428.8906 766.6719,1428.7031 Q766.3438,1428.3281 765.7344,1428.1094 Q765.125,1427.8906 764.5,1427.8906 Q763.7344,1427.8906 763.0938,1428.2188 Q762.4688,1428.5469 761.9688,1429.2969 Q761.4844,1430.0469 761.4844,1431.0781 L761.4844,1432.1719 Q761.4844,1433.4063 762.375,1434.2344 Q763.2656,1435.0469 764.8594,1435.0469 Q765.7969,1435.0469 766.4531,1434.7969 Q766.8438,1434.6406 767.2656,1434.2031 Q767.5313,1433.9375 767.6719,1433.8594 Q767.8281,1433.7813 768.0313,1433.7813 Q768.3594,1433.7813 768.6094,1434.0469 Q768.875,1434.2969 768.875,1434.6406 Q768.875,1434.9844 768.5313,1435.3906 Q768.0313,1435.9688 767.2344,1436.2969 Q766.1563,1436.75 764.8594,1436.75 Q763.3438,1436.75 762.1406,1436.125 Q761.1563,1435.625 760.4688,1434.5625 Q759.7813,1433.4844 759.7813,1432.2031 L759.7813,1431.0469 Q759.7813,1429.7188 760.3906,1428.5781 Q761.0156,1427.4219 762.1094,1426.8125 Q763.2031,1426.1875 764.4375,1426.1875 Q765.1719,1426.1875 765.8125,1426.3594 Q766.4688,1426.5156 767.0156,1426.875 Z " fill="#000000"/><text fill="#000000" font-family="sans-serif" font-size="14" lengthAdjust="spacing" textLength="45" x="784.75" y="1436.7285">Sensor</text><line style="stroke:#181818;stroke-width:0.5;" x1="636.5" x2="945.5" y1="1447" y2="1447"/><text fill="#000000" font-family="sans-serif" font-size="14" lengthAdjust="spacing" textLength="299" x="641.5" y="1465.5332">+setMedicoes(aMedicoes : Medicao...) : Sensor</text><text fill="#000000" font-family="sans-serif" font-size="14" lengthAdjust="spacing" textLength="205" x="641.5" y="1483.1426">+driver(sDriver : String) : Sensor</text><text fill="#000000" font-family="sans-serif" font-size="14" lengthAdjust="spacing" textLength="201" x="641.5" y="1500.752">+getMedicoes() : List&lt;Medicao&gt;</text></g><!--class Atuador--><g id="elem_Atuador"><rect codeLine="56" fill="#F1F1F1" height="57.6094" id="Atuador" rx="2.5" ry="2.5" style="stroke:#181818;stroke-width:0.5;" width="222" x="378" y="1432.5"/><ellipse cx="459.75" cy="1448.5" fill="#ADD1B2" rx="11" ry="11" style="stroke:#181818;stroke-width:1.0;"/><path d="M462.5156,1444.375 Q462.6719,1444.1563 462.8594,1444.0469 Q463.0469,1443.9375 463.2656,1443.9375 Q463.6406,1443.9375 463.875,1444.2031 Q464.1094,1444.4531 464.1094,1445.0625 L464.1094,1446.5156 Q464.1094,1447.125 463.875,1447.3906 Q463.6406,1447.6563 463.2656,1447.6563 Q462.9219,1447.6563 462.7188,1447.4531 Q462.5156,1447.2656 462.4063,1446.75 Q462.3594,1446.3906 462.1719,1446.2031 Q461.8438,1445.8281 461.2344,1445.6094 Q460.625,1445.3906 460,1445.3906 Q459.2344,1445.3906 458.5938,1445.7188 Q457.9688,1446.0469 457.4688,1446.7969 Q456.9844,1447.5469 456.9844,1448.5781 L456.9844,1449.6719 Q456.9844,1450.9063 457.875,1451.7344 Q458.7656,1452.5469 460.3594,1452.5469 Q461.2969,1452.5469 461.9531,1452.2969 Q462.3438,1452.1406 462.7656,1451.7031 Q463.0313,1451.4375 463.1719,1451.3594 Q463.3281,1451.2813 463.5313,1451.2813 Q463.8594,1451.2813 464.1094,1451.5469 Q464.375,1451.7969 464.375,1452.1406 Q464.375,1452.4844 464.0313,1452.8906 Q463.5313,1453.4688 462.7344,1453.7969 Q461.6563,1454.25 460.3594,1454.25 Q458.8438,1454.25 457.6406,1453.625 Q456.6563,1453.125 455.9688,1452.0625 Q455.2813,1450.9844 455.2813,1449.7031 L455.2813,1448.5469 Q455.2813,1447.2188 455.8906,1446.0781 Q456.5156,1444.9219 457.6094,1444.3125 Q458.7031,1443.6875 459.9375,1443.6875 Q460.6719,1443.6875 461.3125,1443.8594 Q461.9688,1444.0156 462.5156,1444.375 Z " fill="#000000"/><text fill="#000000" font-family="sans-serif" font-size="14" lengthAdjust="spacing" textLength="50" x="480.25" y="1454.2285">Atuador</text><line style="stroke:#181818;stroke-width:0.5;" x1="379" x2="599" y1="1464.5" y2="1464.5"/><text fill="#000000" font-family="sans-serif" font-size="14" lengthAdjust="spacing" textLength="210" x="384" y="1483.0332">+driver(sDriver : String) : Atuador</text></g><!--class Porta--><g id="elem_Porta"><rect codeLine="60" fill="#F1F1F1" height="75.2188" id="Porta" rx="2.5" ry="2.5" style="stroke:#181818;stroke-width:0.5;" width="112" x="84" y="1594.5"/><ellipse cx="119.7" cy="1610.5" fill="#ADD1B2" rx="11" ry="11" style="stroke:#181818;stroke-width:1.0;"/><path d="M122.4656,1606.375 Q122.6219,1606.1563 122.8094,1606.0469 Q122.9969,1605.9375 123.2156,1605.9375 Q123.5906,1605.9375 123.825,1606.2031 Q124.0594,1606.4531 124.0594,1607.0625 L124.0594,1608.5156 Q124.0594,1609.125 123.825,1609.3906 Q123.5906,1609.6563 123.2156,1609.6563 Q122.8719,1609.6563 122.6688,1609.4531 Q122.4656,1609.2656 122.3563,1608.75 Q122.3094,1608.3906 122.1219,1608.2031 Q121.7938,1607.8281 121.1844,1607.6094 Q120.575,1607.3906 119.95,1607.3906 Q119.1844,1607.3906 118.5438,1607.7188 Q117.9188,1608.0469 117.4188,1608.7969 Q116.9344,1609.5469 116.9344,1610.5781 L116.9344,1611.6719 Q116.9344,1612.9063 117.825,1613.7344 Q118.7156,1614.5469 120.3094,1614.5469 Q121.2469,1614.5469 121.9031,1614.2969 Q122.2938,1614.1406 122.7156,1613.7031 Q122.9813,1613.4375 123.1219,1613.3594 Q123.2781,1613.2813 123.4813,1613.2813 Q123.8094,1613.2813 124.0594,1613.5469 Q124.325,1613.7969 124.325,1614.1406 Q124.325,1614.4844 123.9813,1614.8906 Q123.4813,1615.4688 122.6844,1615.7969 Q121.6063,1616.25 120.3094,1616.25 Q118.7938,1616.25 117.5906,1615.625 Q116.6063,1615.125 115.9188,1614.0625 Q115.2313,1612.9844 115.2313,1611.7031 L115.2313,1610.5469 Q115.2313,1609.2188 115.8406,1608.0781 Q116.4656,1606.9219 117.5594,1606.3125 Q118.6531,1605.6875 119.8875,1605.6875 Q120.6219,1605.6875 121.2625,1605.8594 Q121.9188,1606.0156 122.4656,1606.375 Z " fill="#000000"/><text fill="#000000" font-family="sans-serif" font-size="14" lengthAdjust="spacing" textLength="34" x="138.3" y="1616.2285">Porta</text><line style="stroke:#181818;stroke-width:0.5;" x1="85" x2="195" y1="1626.5" y2="1626.5"/><text fill="#000000" font-family="sans-serif" font-size="14" lengthAdjust="spacing" textLength="100" x="90" y="1645.0332">+sNome : String</text><text fill="#000000" font-family="sans-serif" font-size="14" lengthAdjust="spacing" textLength="66" x="90" y="1662.6426">+iPino : int</text></g><!--class Medicao--><g id="elem_Medicao"><rect codeLine="65" fill="#F1F1F1" height="75.2188" id="Medicao" rx="2.5" ry="2.5" style="stroke:#181818;stroke-width:0.5;" width="129" x="726.5" y="1594.5"/><ellipse cx="761.3" cy="1610.5" fill="#ADD1B2" rx="11" ry="11" style="stroke:#181818;stroke-width:1.0;"/><path d="M764.0656,1606.375 Q764.2219,1606.1563 764.4094,1606.0469 Q764.5969,1605.9375 764.8156,1605.9375 Q765.1906,1605.9375 765.425,1606.2031 Q765.6594,1606.4531 765.6594,1607.0625 L765.6594,1608.5156 Q765.6594,1609.125 765.425,1609.3906 Q765.1906,1609.6563 764.8156,1609.6563 Q764.4719,1609.6563 764.2688,1609.4531 Q764.0656,1609.2656 763.9563,1608.75 Q763.9094,1608.3906 763.7219,1608.2031 Q763.3938,1607.8281 762.7844,1607.6094 Q762.175,1607.3906 761.55,1607.3906 Q760.7844,1607.3906 760.1438,1607.7188 Q759.5188,1608.0469 759.0188,1608.7969 Q758.5344,1609.5469 758.5344,1610.5781 L758.5344,1611.6719 Q758.5344,1612.9063 759.425,1613.7344 Q760.3156,1614.5469 761.9094,1614.5469 Q762.8469,1614.5469 763.5031,1614.2969 Q763.8938,1614.1406 764.3156,1613.7031 Q764.5813,1613.4375 764.7219,1613.3594 Q764.8781,1613.2813 765.0813,1613.2813 Q765.4094,1613.2813 765.6594,1613.5469 Q765.925,1613.7969 765.925,1614.1406 Q765.925,1614.4844 765.5813,1614.8906 Q765.0813,1615.4688 764.2844,1615.7969 Q763.2063,1616.25 761.9094,1616.25 Q760.3938,1616.25 759.1906,1615.625 Q758.2063,1615.125 757.5188,1614.0625 Q756.8313,1612.9844 756.8313,1611.7031 L756.8313,1610.5469 Q756.8313,1609.2188 757.4406,1608.0781 Q758.0656,1606.9219 759.1594,1606.3125 Q760.2531,1605.6875 761.4875,1605.6875 Q762.2219,1605.6875 762.8625,1605.8594 Q763.5188,1606.0156 764.0656,1606.375 Z " fill="#000000"/><text fill="#000000" font-family="sans-serif" font-size="14" lengthAdjust="spacing" textLength="53" x="779.7" y="1616.2285">Medicao</text><line style="stroke:#181818;stroke-width:0.5;" x1="727.5" x2="854.5" y1="1626.5" y2="1626.5"/><text fill="#000000" font-family="sans-serif" font-size="14" lengthAdjust="spacing" textLength="100" x="732.5" y="1645.0332">+sNome : String</text><text fill="#000000" font-family="sans-serif" font-size="14" lengthAdjust="spacing" textLength="117" x="732.5" y="1662.6426">+oTipo : TipoValor</text></g><!--class Connection--><g id="elem_Connection"><rect codeLine="70" fill="#F1F1F1" height="224.0938" id="Connection" rx="2.5" ry="2.5" style="stroke:#181818;stroke-width:0.5;" width="332" x="179" y="908.5"/><ellipse cx="304.75" cy="924.5" fill="#ADD1B2" rx="11" ry="11" style="stroke:#181818;stroke-width:1.0;"/><path d="M307.5156,920.375 Q307.6719,920.1563 307.8594,920.0469 Q308.0469,919.9375 308.2656,919.9375 Q308.6406,919.9375 308.875,920.2031 Q309.1094,920.4531 309.1094,921.0625 L309.1094,922.5156 Q309.1094,923.125 308.875,923.3906 Q308.6406,923.6563 308.2656,923.6563 Q307.9219,923.6563 307.7188,923.4531 Q307.5156,923.2656 307.4063,922.75 Q307.3594,922.3906 307.1719,922.2031 Q306.8438,921.8281 306.2344,921.6094 Q305.625,921.3906 305,921.3906 Q304.2344,921.3906 303.5938,921.7188 Q302.9688,922.0469 302.4688,922.7969 Q301.9844,923.5469 301.9844,924.5781 L301.9844,925.6719 Q301.9844,926.9063 302.875,927.7344 Q303.7656,928.5469 305.3594,928.5469 Q306.2969,928.5469 306.9531,928.2969 Q307.3438,928.1406 307.7656,927.7031 Q308.0313,927.4375 308.1719,927.3594 Q308.3281,927.2813 308.5313,927.2813 Q308.8594,927.2813 309.1094,927.5469 Q309.375,927.7969 309.375,928.1406 Q309.375,928.4844 309.0313,928.8906 Q308.5313,929.4688 307.7344,929.7969 Q306.6563,930.25 305.3594,930.25 Q303.8438,930.25 302.6406,929.625 Q301.6563,929.125 300.9688,928.0625 Q300.2813,926.9844 300.2813,925.7031 L300.2813,924.5469 Q300.2813,923.2188 300.8906,922.0781 Q301.5156,920.9219 302.6094,920.3125 Q303.7031,919.6875 304.9375,919.6875 Q305.6719,919.6875 306.3125,919.8594 Q306.9688,920.0156 307.5156,920.375 Z " fill="#000000"/><text fill="#000000" font-family="sans-serif" font-size="14" lengthAdjust="spacing" textLength="72" x="325.25" y="930.2285">Connection</text><line style="stroke:#181818;stroke-width:0.5;" x1="180" x2="510" y1="940.5" y2="940.5"/><text fill="#000000" font-family="sans-serif" font-size="14" lengthAdjust="spacing" textLength="247" x="185" y="959.0332">-oComponente : ComponenteHardware</text><text fill="#000000" font-family="sans-serif" font-size="14" lengthAdjust="spacing" textLength="175" x="185" y="976.6426">-oControlador : Controlador</text><text fill="#000000" font-family="sans-serif" font-size="14" lengthAdjust="spacing" textLength="93" x="185" y="994.252">-oPorta : Porta</text><line style="stroke:#181818;stroke-width:0.5;" x1="180" x2="510" y1="1001.3281" y2="1001.3281"/><text fill="#000000" font-family="sans-serif" font-size="14" lengthAdjust="spacing" textLength="320" x="185" y="1019.8613">+Connection(oComponente, oControlador, oPorta)</text><text fill="#000000" font-family="sans-serif" font-size="14" lengthAdjust="spacing" textLength="155" x="185" y="1037.4707">+sComponente() : String</text><text fill="#000000" font-family="sans-serif" font-size="14" lengthAdjust="spacing" textLength="149" x="185" y="1055.0801">+sControlador() : String</text><text fill="#000000" font-family="sans-serif" font-size="14" lengthAdjust="spacing" textLength="108" x="185" y="1072.6895">+sPorta() : String</text><text fill="#000000" font-family="sans-serif" font-size="14" lengthAdjust="spacing" textLength="272" x="185" y="1090.2988">+getComponente() : ComponenteHardware</text><text fill="#000000" font-family="sans-serif" font-size="14" lengthAdjust="spacing" textLength="200" x="185" y="1107.9082">+getControlador() : Controlador</text><text fill="#000000" font-family="sans-serif" font-size="14" lengthAdjust="spacing" textLength="118" x="185" y="1125.5176">+getPorta() : Porta</text></g><!--class TipoValor--><g id="elem_TipoValor"><rect codeLine="83" fill="#F1F1F1" height="92.8281" id="TipoValor" rx="2.5" ry="2.5" style="stroke:#181818;stroke-width:0.5;" width="93" x="744.5" y="1729.5"/><ellipse cx="759.5" cy="1745.5" fill="#EB937F" rx="11" ry="11" style="stroke:#181818;stroke-width:1.0;"/><path d="M758.3594,1746.2969 L758.3594,1748.7969 L762.6875,1748.7969 L762.6875,1747.875 Q762.6875,1747.2656 762.9219,1747 Q763.1719,1746.7344 763.5469,1746.7344 Q763.9219,1746.7344 764.1563,1747 Q764.3906,1747.2656 764.3906,1747.875 L764.3906,1750.5 L756.3906,1750.5 Q755.7656,1750.5 755.5,1750.2656 Q755.25,1750.0313 755.25,1749.6406 Q755.25,1749.2656 755.5156,1749.0313 Q755.7813,1748.7969 756.3906,1748.7969 L756.6563,1748.7969 L756.6563,1742.1406 L756.3906,1742.1406 Q755.7656,1742.1406 755.5,1741.9063 Q755.25,1741.6719 755.25,1741.2813 Q755.25,1740.9063 755.5,1740.6719 Q755.7656,1740.4375 756.3906,1740.4375 L764.0156,1740.4375 L764.0156,1743.0313 Q764.0156,1743.6406 763.7813,1743.9063 Q763.5625,1744.1563 763.1719,1744.1563 Q762.7969,1744.1563 762.5625,1743.9063 Q762.3281,1743.6406 762.3281,1743.0313 L762.3281,1742.1406 L758.3594,1742.1406 L758.3594,1744.5938 L759.8438,1744.5938 Q759.8438,1743.9375 759.9688,1743.75 Q760.2344,1743.3438 760.7031,1743.3438 Q761.0781,1743.3438 761.3125,1743.6094 Q761.5469,1743.8594 761.5469,1744.4688 L761.5469,1746.4375 Q761.5469,1746.9844 761.4219,1747.1719 Q761.1563,1747.5625 760.7031,1747.5625 Q760.2344,1747.5625 759.9688,1747.1563 Q759.8438,1746.9688 759.8438,1746.2969 L758.3594,1746.2969 Z " fill="#000000"/><text fill="#000000" font-family="sans-serif" font-size="14" lengthAdjust="spacing" textLength="61" x="773.5" y="1751.2285">TipoValor</text><line style="stroke:#181818;stroke-width:0.5;" x1="745.5" x2="836.5" y1="1761.5" y2="1761.5"/><text fill="#000000" font-family="sans-serif" font-size="14" lengthAdjust="spacing" textLength="77" x="750.5" y="1780.0332">BOOLEANO</text><text fill="#000000" font-family="sans-serif" font-size="14" lengthAdjust="spacing" textLength="54" x="750.5" y="1797.6426">INTEIRO</text><text fill="#000000" font-family="sans-serif" font-size="14" lengthAdjust="spacing" textLength="60" x="750.5" y="1815.252">DECIMAL</text></g><!--class Condicao--><g id="elem_Condicao"><rect codeLine="91" fill="#F1F1F1" height="92.8281" id="Condicao" rx="2.5" ry="2.5" style="stroke:#181818;stroke-width:0.5;" width="234" x="1644" y="974"/><ellipse cx="1726.75" cy="990" fill="#B4A7E5" rx="11" ry="11" style="stroke:#181818;stroke-width:1.0;"/><path d="M1727.7031,986.6406 L1727.7031,993.2969 L1729.4219,993.2969 Q1730.0313,993.2969 1730.2969,993.5313 Q1730.5625,993.7656 1730.5625,994.1563 Q1730.5625,994.5313 1730.2969,994.7656 Q1730.0313,995 1729.4219,995 L1724.2813,995 Q1723.6719,995 1723.4063,994.7656 Q1723.1406,994.5313 1723.1406,994.1406 Q1723.1406,993.7656 1723.4063,993.5313 Q1723.6719,993.2969 1724.2813,993.2969 L1726,993.2969 L1726,986.6406 L1724.2813,986.6406 Q1723.6719,986.6406 1723.4063,986.4063 Q1723.1406,986.1719 1723.1406,985.7813 Q1723.1406,985.4063 1723.4063,985.1719 Q1723.6719,984.9375 1724.2813,984.9375 L1729.4219,984.9375 Q1730.0313,984.9375 1730.2969,985.1719 Q1730.5625,985.4063 1730.5625,985.7813 Q1730.5625,986.1719 1730.2969,986.4063 Q1730.0313,986.6406 1729.4219,986.6406 L1727.7031,986.6406 Z " fill="#000000"/><text fill="#000000" font-family="sans-serif" font-size="14" font-style="italic" lengthAdjust="spacing" textLength="60" x="1747.25" y="995.7285">Condicao</text><line style="stroke:#181818;stroke-width:0.5;" x1="1645" x2="1877" y1="1006" y2="1006"/><text fill="#000000" font-family="sans-serif" font-size="14" lengthAdjust="spacing" textLength="105" x="1650" y="1024.5332">+toCpp() : String</text><text fill="#000000" font-family="sans-serif" font-size="14" lengthAdjust="spacing" textLength="214" x="1650" y="1042.1426">+e(oOutra : Condicao) : Condicao</text><text fill="#000000" font-family="sans-serif" font-size="14" lengthAdjust="spacing" textLength="222" x="1650" y="1059.752">+ou(oOutra : Condicao) : Condicao</text></g><!--class CondicaoComparacao--><g id="elem_CondicaoComparacao"><rect codeLine="97" fill="#F1F1F1" height="136.0469" id="CondicaoComparacao" rx="2.5" ry="2.5" style="stroke:#181818;stroke-width:0.5;" width="419" x="1551.5" y="1192.5"/><ellipse cx="1686.25" cy="1208.5" fill="#ADD1B2" rx="11" ry="11" style="stroke:#181818;stroke-width:1.0;"/><path d="M1689.0156,1204.375 Q1689.1719,1204.1563 1689.3594,1204.0469 Q1689.5469,1203.9375 1689.7656,1203.9375 Q1690.1406,1203.9375 1690.375,1204.2031 Q1690.6094,1204.4531 1690.6094,1205.0625 L1690.6094,1206.5156 Q1690.6094,1207.125 1690.375,1207.3906 Q1690.1406,1207.6563 1689.7656,1207.6563 Q1689.4219,1207.6563 1689.2188,1207.4531 Q1689.0156,1207.2656 1688.9063,1206.75 Q1688.8594,1206.3906 1688.6719,1206.2031 Q1688.3438,1205.8281 1687.7344,1205.6094 Q1687.125,1205.3906 1686.5,1205.3906 Q1685.7344,1205.3906 1685.0938,1205.7188 Q1684.4688,1206.0469 1683.9688,1206.7969 Q1683.4844,1207.5469 1683.4844,1208.5781 L1683.4844,1209.6719 Q1683.4844,1210.9063 1684.375,1211.7344 Q1685.2656,1212.5469 1686.8594,1212.5469 Q1687.7969,1212.5469 1688.4531,1212.2969 Q1688.8438,1212.1406 1689.2656,1211.7031 Q1689.5313,1211.4375 1689.6719,1211.3594 Q1689.8281,1211.2813 1690.0313,1211.2813 Q1690.3594,1211.2813 1690.6094,1211.5469 Q1690.875,1211.7969 1690.875,1212.1406 Q1690.875,1212.4844 1690.5313,1212.8906 Q1690.0313,1213.4688 1689.2344,1213.7969 Q1688.1563,1214.25 1686.8594,1214.25 Q1685.3438,1214.25 1684.1406,1213.625 Q1683.1563,1213.125 1682.4688,1212.0625 Q1681.7813,1210.9844 1681.7813,1209.7031 L1681.7813,1208.5469 Q1681.7813,1207.2188 1682.3906,1206.0781 Q1683.0156,1204.9219 1684.1094,1204.3125 Q1685.2031,1203.6875 1686.4375,1203.6875 Q1687.1719,1203.6875 1687.8125,1203.8594 Q1688.4688,1204.0156 1689.0156,1204.375 Z " fill="#000000"/><text fill="#000000" font-family="sans-serif" font-size="14" lengthAdjust="spacing" textLength="141" x="1706.75" y="1214.2285">CondicaoComparacao</text><line style="stroke:#181818;stroke-width:0.5;" x1="1552.5" x2="1969.5" y1="1224.5" y2="1224.5"/><text fill="#000000" font-family="sans-serif" font-size="14" lengthAdjust="spacing" textLength="115" x="1557.5" y="1243.0332">-oSensor : Sensor</text><text fill="#000000" font-family="sans-serif" font-size="14" lengthAdjust="spacing" textLength="131" x="1557.5" y="1260.6426">-oMedicao : Medicao</text><text fill="#000000" font-family="sans-serif" font-size="14" lengthAdjust="spacing" textLength="228" x="1557.5" y="1278.252">-oOperador : OperadorComparacao</text><text fill="#000000" font-family="sans-serif" font-size="14" lengthAdjust="spacing" textLength="101" x="1557.5" y="1295.8613">-dValor : double</text><line style="stroke:#181818;stroke-width:0.5;" x1="1552.5" x2="1969.5" y1="1302.9375" y2="1302.9375"/><text fill="#000000" font-family="sans-serif" font-size="14" lengthAdjust="spacing" textLength="407" x="1557.5" y="1321.4707">+CondicaoComparacao(oSensor, oMedicao, oOperador, dValor)</text></g><!--class CondicaoComposta--><g id="elem_CondicaoComposta"><rect codeLine="105" fill="#F1F1F1" height="75.2188" id="CondicaoComposta" rx="2.5" ry="2.5" style="stroke:#181818;stroke-width:0.5;" width="202" x="2006" y="1223"/><ellipse cx="2041.7" cy="1239" fill="#ADD1B2" rx="11" ry="11" style="stroke:#181818;stroke-width:1.0;"/><path d="M2044.4656,1234.875 Q2044.6219,1234.6563 2044.8094,1234.5469 Q2044.9969,1234.4375 2045.2156,1234.4375 Q2045.5906,1234.4375 2045.825,1234.7031 Q2046.0594,1234.9531 2046.0594,1235.5625 L2046.0594,1237.0156 Q2046.0594,1237.625 2045.825,1237.8906 Q2045.5906,1238.1563 2045.2156,1238.1563 Q2044.8719,1238.1563 2044.6688,1237.9531 Q2044.4656,1237.7656 2044.3563,1237.25 Q2044.3094,1236.8906 2044.1219,1236.7031 Q2043.7938,1236.3281 2043.1844,1236.1094 Q2042.575,1235.8906 2041.95,1235.8906 Q2041.1844,1235.8906 2040.5438,1236.2188 Q2039.9188,1236.5469 2039.4188,1237.2969 Q2038.9344,1238.0469 2038.9344,1239.0781 L2038.9344,1240.1719 Q2038.9344,1241.4063 2039.825,1242.2344 Q2040.7156,1243.0469 2042.3094,1243.0469 Q2043.2469,1243.0469 2043.9031,1242.7969 Q2044.2938,1242.6406 2044.7156,1242.2031 Q2044.9813,1241.9375 2045.1219,1241.8594 Q2045.2781,1241.7813 2045.4813,1241.7813 Q2045.8094,1241.7813 2046.0594,1242.0469 Q2046.325,1242.2969 2046.325,1242.6406 Q2046.325,1242.9844 2045.9813,1243.3906 Q2045.4813,1243.9688 2044.6844,1244.2969 Q2043.6063,1244.75 2042.3094,1244.75 Q2040.7938,1244.75 2039.5906,1244.125 Q2038.6063,1243.625 2037.9188,1242.5625 Q2037.2313,1241.4844 2037.2313,1240.2031 L2037.2313,1239.0469 Q2037.2313,1237.7188 2037.8406,1236.5781 Q2038.4656,1235.4219 2039.5594,1234.8125 Q2040.6531,1234.1875 2041.8875,1234.1875 Q2042.6219,1234.1875 2043.2625,1234.3594 Q2043.9188,1234.5156 2044.4656,1234.875 Z " fill="#000000"/><text fill="#000000" font-family="sans-serif" font-size="14" lengthAdjust="spacing" textLength="124" x="2060.3" y="1244.7285">CondicaoComposta</text><line style="stroke:#181818;stroke-width:0.5;" x1="2007" x2="2207" y1="1255" y2="1255"/><text fill="#000000" font-family="sans-serif" font-size="14" lengthAdjust="spacing" textLength="189" x="2012" y="1273.5332">-oOperador : OperadorLogico</text><text fill="#000000" font-family="sans-serif" font-size="14" lengthAdjust="spacing" textLength="190" x="2012" y="1291.1426">-aCondicoes : List&lt;Condicao&gt;</text></g><!--class Acao--><g id="elem_Acao"><rect codeLine="110" fill="#F1F1F1" height="57.6094" id="Acao" rx="2.5" ry="2.5" style="stroke:#181818;stroke-width:0.5;" width="117" x="1350.5" y="991.5"/><ellipse cx="1389.35" cy="1007.5" fill="#B4A7E5" rx="11" ry="11" style="stroke:#181818;stroke-width:1.0;"/><path d="M1390.3031,1004.1406 L1390.3031,1010.7969 L1392.0219,1010.7969 Q1392.6313,1010.7969 1392.8969,1011.0313 Q1393.1625,1011.2656 1393.1625,1011.6563 Q1393.1625,1012.0313 1392.8969,1012.2656 Q1392.6313,1012.5 1392.0219,1012.5 L1386.8813,1012.5 Q1386.2719,1012.5 1386.0063,1012.2656 Q1385.7406,1012.0313 1385.7406,1011.6406 Q1385.7406,1011.2656 1386.0063,1011.0313 Q1386.2719,1010.7969 1386.8813,1010.7969 L1388.6,1010.7969 L1388.6,1004.1406 L1386.8813,1004.1406 Q1386.2719,1004.1406 1386.0063,1003.9063 Q1385.7406,1003.6719 1385.7406,1003.2813 Q1385.7406,1002.9063 1386.0063,1002.6719 Q1386.2719,1002.4375 1386.8813,1002.4375 L1392.0219,1002.4375 Q1392.6313,1002.4375 1392.8969,1002.6719 Q1393.1625,1002.9063 1393.1625,1003.2813 Q1393.1625,1003.6719 1392.8969,1003.9063 Q1392.6313,1004.1406 1392.0219,1004.1406 L1390.3031,1004.1406 Z " fill="#000000"/><text fill="#000000" font-family="sans-serif" font-size="14" font-style="italic" lengthAdjust="spacing" textLength="32" x="1408.65" y="1013.2285">Acao</text><line style="stroke:#181818;stroke-width:0.5;" x1="1351.5" x2="1466.5" y1="1023.5" y2="1023.5"/><text fill="#000000" font-family="sans-serif" font-size="14" lengthAdjust="spacing" textLength="105" x="1356.5" y="1042.0332">+toCpp() : String</text></g><!--class AcaoDefinirEstado--><g id="elem_AcaoDefinirEstado"><rect codeLine="114" fill="#F1F1F1" height="100.8281" id="AcaoDefinirEstado" rx="2.5" ry="2.5" style="stroke:#181818;stroke-width:0.5;" width="264" x="1003" y="1210"/><ellipse cx="1072.25" cy="1226" fill="#ADD1B2" rx="11" ry="11" style="stroke:#181818;stroke-width:1.0;"/><path d="M1075.0156,1221.875 Q1075.1719,1221.6563 1075.3594,1221.5469 Q1075.5469,1221.4375 1075.7656,1221.4375 Q1076.1406,1221.4375 1076.375,1221.7031 Q1076.6094,1221.9531 1076.6094,1222.5625 L1076.6094,1224.0156 Q1076.6094,1224.625 1076.375,1224.8906 Q1076.1406,1225.1563 1075.7656,1225.1563 Q1075.4219,1225.1563 1075.2188,1224.9531 Q1075.0156,1224.7656 1074.9063,1224.25 Q1074.8594,1223.8906 1074.6719,1223.7031 Q1074.3438,1223.3281 1073.7344,1223.1094 Q1073.125,1222.8906 1072.5,1222.8906 Q1071.7344,1222.8906 1071.0938,1223.2188 Q1070.4688,1223.5469 1069.9688,1224.2969 Q1069.4844,1225.0469 1069.4844,1226.0781 L1069.4844,1227.1719 Q1069.4844,1228.4063 1070.375,1229.2344 Q1071.2656,1230.0469 1072.8594,1230.0469 Q1073.7969,1230.0469 1074.4531,1229.7969 Q1074.8438,1229.6406 1075.2656,1229.2031 Q1075.5313,1228.9375 1075.6719,1228.8594 Q1075.8281,1228.7813 1076.0313,1228.7813 Q1076.3594,1228.7813 1076.6094,1229.0469 Q1076.875,1229.2969 1076.875,1229.6406 Q1076.875,1229.9844 1076.5313,1230.3906 Q1076.0313,1230.9688 1075.2344,1231.2969 Q1074.1563,1231.75 1072.8594,1231.75 Q1071.3438,1231.75 1070.1406,1231.125 Q1069.1563,1230.625 1068.4688,1229.5625 Q1067.7813,1228.4844 1067.7813,1227.2031 L1067.7813,1226.0469 Q1067.7813,1224.7188 1068.3906,1223.5781 Q1069.0156,1222.4219 1070.1094,1221.8125 Q1071.2031,1221.1875 1072.4375,1221.1875 Q1073.1719,1221.1875 1073.8125,1221.3594 Q1074.4688,1221.5156 1075.0156,1221.875 Z " fill="#000000"/><text fill="#000000" font-family="sans-serif" font-size="14" lengthAdjust="spacing" textLength="117" x="1092.75" y="1231.7285">AcaoDefinirEstado</text><line style="stroke:#181818;stroke-width:0.5;" x1="1004" x2="1266" y1="1242" y2="1242"/><text fill="#000000" font-family="sans-serif" font-size="14" lengthAdjust="spacing" textLength="125" x="1009" y="1260.5332">-oAtuador : Atuador</text><text fill="#000000" font-family="sans-serif" font-size="14" lengthAdjust="spacing" textLength="119" x="1009" y="1278.1426">-bLigado : boolean</text><line style="stroke:#181818;stroke-width:0.5;" x1="1004" x2="1266" y1="1285.2188" y2="1285.2188"/><text fill="#000000" font-family="sans-serif" font-size="14" lengthAdjust="spacing" textLength="252" x="1009" y="1303.752">+AcaoDefinirEstado(oAtuador, bLigado)</text></g><!--class AcaoAlternarEstado--><g id="elem_AcaoAlternarEstado"><rect codeLine="120" fill="#F1F1F1" height="83.2188" id="AcaoAlternarEstado" rx="2.5" ry="2.5" style="stroke:#181818;stroke-width:0.5;" width="214" x="1302" y="1219"/><ellipse cx="1342.2" cy="1235" fill="#ADD1B2" rx="11" ry="11" style="stroke:#181818;stroke-width:1.0;"/><path d="M1344.9656,1230.875 Q1345.1219,1230.6563 1345.3094,1230.5469 Q1345.4969,1230.4375 1345.7156,1230.4375 Q1346.0906,1230.4375 1346.325,1230.7031 Q1346.5594,1230.9531 1346.5594,1231.5625 L1346.5594,1233.0156 Q1346.5594,1233.625 1346.325,1233.8906 Q1346.0906,1234.1563 1345.7156,1234.1563 Q1345.3719,1234.1563 1345.1688,1233.9531 Q1344.9656,1233.7656 1344.8563,1233.25 Q1344.8094,1232.8906 1344.6219,1232.7031 Q1344.2938,1232.3281 1343.6844,1232.1094 Q1343.075,1231.8906 1342.45,1231.8906 Q1341.6844,1231.8906 1341.0438,1232.2188 Q1340.4188,1232.5469 1339.9188,1233.2969 Q1339.4344,1234.0469 1339.4344,1235.0781 L1339.4344,1236.1719 Q1339.4344,1237.4063 1340.325,1238.2344 Q1341.2156,1239.0469 1342.8094,1239.0469 Q1343.7469,1239.0469 1344.4031,1238.7969 Q1344.7938,1238.6406 1345.2156,1238.2031 Q1345.4813,1237.9375 1345.6219,1237.8594 Q1345.7781,1237.7813 1345.9813,1237.7813 Q1346.3094,1237.7813 1346.5594,1238.0469 Q1346.825,1238.2969 1346.825,1238.6406 Q1346.825,1238.9844 1346.4813,1239.3906 Q1345.9813,1239.9688 1345.1844,1240.2969 Q1344.1063,1240.75 1342.8094,1240.75 Q1341.2938,1240.75 1340.0906,1240.125 Q1339.1063,1239.625 1338.4188,1238.5625 Q1337.7313,1237.4844 1337.7313,1236.2031 L1337.7313,1235.0469 Q1337.7313,1233.7188 1338.3406,1232.5781 Q1338.9656,1231.4219 1340.0594,1230.8125 Q1341.1531,1230.1875 1342.3875,1230.1875 Q1343.1219,1230.1875 1343.7625,1230.3594 Q1344.4188,1230.5156 1344.9656,1230.875 Z " fill="#000000"/><text fill="#000000" font-family="sans-serif" font-size="14" lengthAdjust="spacing" textLength="126" x="1361.8" y="1240.7285">AcaoAlternarEstado</text><line style="stroke:#181818;stroke-width:0.5;" x1="1303" x2="1515" y1="1251" y2="1251"/><text fill="#000000" font-family="sans-serif" font-size="14" lengthAdjust="spacing" textLength="125" x="1308" y="1269.5332">-oAtuador : Atuador</text><line style="stroke:#181818;stroke-width:0.5;" x1="1303" x2="1515" y1="1276.6094" y2="1276.6094"/><text fill="#000000" font-family="sans-serif" font-size="14" lengthAdjust="spacing" textLength="202" x="1308" y="1295.1426">+AcaoAlternarEstado(oAtuador)</text></g><!--class Regra--><g id="elem_Regra"><rect codeLine="125" fill="#F1F1F1" height="92.8281" id="Regra" rx="2.5" ry="2.5" style="stroke:#181818;stroke-width:0.5;" width="269" x="1626.5" y="731"/><ellipse cx="1737.25" cy="747" fill="#ADD1B2" rx="11" ry="11" style="stroke:#181818;stroke-width:1.0;"/><path d="M1740.0156,742.875 Q1740.1719,742.6563 1740.3594,742.5469 Q1740.5469,742.4375 1740.7656,742.4375 Q1741.1406,742.4375 1741.375,742.7031 Q1741.6094,742.9531 1741.6094,743.5625 L1741.6094,745.0156 Q1741.6094,745.625 1741.375,745.8906 Q1741.1406,746.1563 1740.7656,746.1563 Q1740.4219,746.1563 1740.2188,745.9531 Q1740.0156,745.7656 1739.9063,745.25 Q1739.8594,744.8906 1739.6719,744.7031 Q1739.3438,744.3281 1738.7344,744.1094 Q1738.125,743.8906 1737.5,743.8906 Q1736.7344,743.8906 1736.0938,744.2188 Q1735.4688,744.5469 1734.9688,745.2969 Q1734.4844,746.0469 1734.4844,747.0781 L1734.4844,748.1719 Q1734.4844,749.4063 1735.375,750.2344 Q1736.2656,751.0469 1737.8594,751.0469 Q1738.7969,751.0469 1739.4531,750.7969 Q1739.8438,750.6406 1740.2656,750.2031 Q1740.5313,749.9375 1740.6719,749.8594 Q1740.8281,749.7813 1741.0313,749.7813 Q1741.3594,749.7813 1741.6094,750.0469 Q1741.875,750.2969 1741.875,750.6406 Q1741.875,750.9844 1741.5313,751.3906 Q1741.0313,751.9688 1740.2344,752.2969 Q1739.1563,752.75 1737.8594,752.75 Q1736.3438,752.75 1735.1406,752.125 Q1734.1563,751.625 1733.4688,750.5625 Q1732.7813,749.4844 1732.7813,748.2031 L1732.7813,747.0469 Q1732.7813,745.7188 1733.3906,744.5781 Q1734.0156,743.4219 1735.1094,742.8125 Q1736.2031,742.1875 1737.4375,742.1875 Q1738.1719,742.1875 1738.8125,742.3594 Q1739.4688,742.5156 1740.0156,742.875 Z " fill="#000000"/><text fill="#000000" font-family="sans-serif" font-size="14" lengthAdjust="spacing" textLength="39" x="1757.75" y="752.7285">Regra</text><line style="stroke:#181818;stroke-width:0.5;" x1="1627.5" x2="1894.5" y1="763" y2="763"/><text fill="#000000" font-family="sans-serif" font-size="14" lengthAdjust="spacing" text-decoration="underline" textLength="257" x="1632.5" y="781.5332">+quando(oCondicao : Condicao) : Regra</text><text fill="#000000" font-family="sans-serif" font-size="14" lengthAdjust="spacing" textLength="189" x="1632.5" y="799.1426">+entao(oAcao : Acao) : Regra</text><text fill="#000000" font-family="sans-serif" font-size="14" lengthAdjust="spacing" textLength="161" x="1632.5" y="816.752">+e(oAcao : Acao) : Regra</text></g><!--class OperadorComparacao--><g id="elem_OperadorComparacao"><rect codeLine="131" fill="#F1F1F1" height="145.6563" id="OperadorComparacao" rx="2.5" ry="2.5" style="stroke:#181818;stroke-width:0.5;" width="174" x="1674" y="1388.5"/><ellipse cx="1689" cy="1404.5" fill="#EB937F" rx="11" ry="11" style="stroke:#181818;stroke-width:1.0;"/><path d="M1687.8594,1405.2969 L1687.8594,1407.7969 L1692.1875,1407.7969 L1692.1875,1406.875 Q1692.1875,1406.2656 1692.4219,1406 Q1692.6719,1405.7344 1693.0469,1405.7344 Q1693.4219,1405.7344 1693.6563,1406 Q1693.8906,1406.2656 1693.8906,1406.875 L1693.8906,1409.5 L1685.8906,1409.5 Q1685.2656,1409.5 1685,1409.2656 Q1684.75,1409.0313 1684.75,1408.6406 Q1684.75,1408.2656 1685.0156,1408.0313 Q1685.2813,1407.7969 1685.8906,1407.7969 L1686.1563,1407.7969 L1686.1563,1401.1406 L1685.8906,1401.1406 Q1685.2656,1401.1406 1685,1400.9063 Q1684.75,1400.6719 1684.75,1400.2813 Q1684.75,1399.9063 1685,1399.6719 Q1685.2656,1399.4375 1685.8906,1399.4375 L1693.5156,1399.4375 L1693.5156,1402.0313 Q1693.5156,1402.6406 1693.2813,1402.9063 Q1693.0625,1403.1563 1692.6719,1403.1563 Q1692.2969,1403.1563 1692.0625,1402.9063 Q1691.8281,1402.6406 1691.8281,1402.0313 L1691.8281,1401.1406 L1687.8594,1401.1406 L1687.8594,1403.5938 L1689.3438,1403.5938 Q1689.3438,1402.9375 1689.4688,1402.75 Q1689.7344,1402.3438 1690.2031,1402.3438 Q1690.5781,1402.3438 1690.8125,1402.6094 Q1691.0469,1402.8594 1691.0469,1403.4688 L1691.0469,1405.4375 Q1691.0469,1405.9844 1690.9219,1406.1719 Q1690.6563,1406.5625 1690.2031,1406.5625 Q1689.7344,1406.5625 1689.4688,1406.1563 Q1689.3438,1405.9688 1689.3438,1405.2969 L1687.8594,1405.2969 Z " fill="#000000"/><text fill="#000000" font-family="sans-serif" font-size="14" lengthAdjust="spacing" textLength="142" x="1703" y="1410.2285">OperadorComparacao</text><line style="stroke:#181818;stroke-width:0.5;" x1="1675" x2="1847" y1="1420.5" y2="1420.5"/><text fill="#000000" font-family="sans-serif" font-size="14" lengthAdjust="spacing" textLength="50" x="1680" y="1439.0332">MENOR</text><text fill="#000000" font-family="sans-serif" font-size="14" lengthAdjust="spacing" textLength="98" x="1680" y="1456.6426">MENOR_IGUAL</text><text fill="#000000" font-family="sans-serif" font-size="14" lengthAdjust="spacing" textLength="44" x="1680" y="1474.252">MAIOR</text><text fill="#000000" font-family="sans-serif" font-size="14" lengthAdjust="spacing" textLength="92" x="1680" y="1491.8613">MAIOR_IGUAL</text><text fill="#000000" font-family="sans-serif" font-size="14" lengthAdjust="spacing" textLength="40" x="1680" y="1509.4707">IGUAL</text><text fill="#000000" font-family="sans-serif" font-size="14" lengthAdjust="spacing" textLength="77" x="1680" y="1527.0801">DIFERENTE</text></g><!--class OperadorLogico--><g id="elem_OperadorLogico"><rect codeLine="140" fill="#F1F1F1" height="75.2188" id="OperadorLogico" rx="2.5" ry="2.5" style="stroke:#181818;stroke-width:0.5;" width="135" x="2039.5" y="1424"/><ellipse cx="2054.5" cy="1440" fill="#EB937F" rx="11" ry="11" style="stroke:#181818;stroke-width:1.0;"/><path d="M2053.3594,1440.7969 L2053.3594,1443.2969 L2057.6875,1443.2969 L2057.6875,1442.375 Q2057.6875,1441.7656 2057.9219,1441.5 Q2058.1719,1441.2344 2058.5469,1441.2344 Q2058.9219,1441.2344 2059.1563,1441.5 Q2059.3906,1441.7656 2059.3906,1442.375 L2059.3906,1445 L2051.3906,1445 Q2050.7656,1445 2050.5,1444.7656 Q2050.25,1444.5313 2050.25,1444.1406 Q2050.25,1443.7656 2050.5156,1443.5313 Q2050.7813,1443.2969 2051.3906,1443.2969 L2051.6563,1443.2969 L2051.6563,1436.6406 L2051.3906,1436.6406 Q2050.7656,1436.6406 2050.5,1436.4063 Q2050.25,1436.1719 2050.25,1435.7813 Q2050.25,1435.4063 2050.5,1435.1719 Q2050.7656,1434.9375 2051.3906,1434.9375 L2059.0156,1434.9375 L2059.0156,1437.5313 Q2059.0156,1438.1406 2058.7813,1438.4063 Q2058.5625,1438.6563 2058.1719,1438.6563 Q2057.7969,1438.6563 2057.5625,1438.4063 Q2057.3281,1438.1406 2057.3281,1437.5313 L2057.3281,1436.6406 L2053.3594,1436.6406 L2053.3594,1439.0938 L2054.8438,1439.0938 Q2054.8438,1438.4375 2054.9688,1438.25 Q2055.2344,1437.8438 2055.7031,1437.8438 Q2056.0781,1437.8438 2056.3125,1438.1094 Q2056.5469,1438.3594 2056.5469,1438.9688 L2056.5469,1440.9375 Q2056.5469,1441.4844 2056.4219,1441.6719 Q2056.1563,1442.0625 2055.7031,1442.0625 Q2055.2344,1442.0625 2054.9688,1441.6563 Q2054.8438,1441.4688 2054.8438,1440.7969 L2053.3594,1440.7969 Z " fill="#000000"/><text fill="#000000" font-family="sans-serif" font-size="14" lengthAdjust="spacing" textLength="103" x="2068.5" y="1445.7285">OperadorLogico</text><line style="stroke:#181818;stroke-width:0.5;" x1="2040.5" x2="2173.5" y1="1456" y2="1456"/><text fill="#000000" font-family="sans-serif" font-size="14" lengthAdjust="spacing" textLength="9" x="2045.5" y="1474.5332">E</text><text fill="#000000" font-family="sans-serif" font-size="14" lengthAdjust="spacing" textLength="20" x="2045.5" y="1492.1426">OU</text></g><!--class Driver--><g id="elem_Driver"><rect codeLine="147" fill="#F1F1F1" height="110.4375" id="Driver" rx="2.5" ry="2.5" style="stroke:#181818;stroke-width:0.5;" width="400" x="2264" y="722.5"/><ellipse cx="2441.25" cy="738.5" fill="#B4A7E5" rx="11" ry="11" style="stroke:#181818;stroke-width:1.0;"/><path d="M2442.2031,735.1406 L2442.2031,741.7969 L2443.9219,741.7969 Q2444.5313,741.7969 2444.7969,742.0313 Q2445.0625,742.2656 2445.0625,742.6563 Q2445.0625,743.0313 2444.7969,743.2656 Q2444.5313,743.5 2443.9219,743.5 L2438.7813,743.5 Q2438.1719,743.5 2437.9063,743.2656 Q2437.6406,743.0313 2437.6406,742.6406 Q2437.6406,742.2656 2437.9063,742.0313 Q2438.1719,741.7969 2438.7813,741.7969 L2440.5,741.7969 L2440.5,735.1406 L2438.7813,735.1406 Q2438.1719,735.1406 2437.9063,734.9063 Q2437.6406,734.6719 2437.6406,734.2813 Q2437.6406,733.9063 2437.9063,733.6719 Q2438.1719,733.4375 2438.7813,733.4375 L2443.9219,733.4375 Q2444.5313,733.4375 2444.7969,733.6719 Q2445.0625,733.9063 2445.0625,734.2813 Q2445.0625,734.6719 2444.7969,734.9063 Q2444.5313,735.1406 2443.9219,735.1406 L2442.2031,735.1406 Z " fill="#000000"/><text fill="#000000" font-family="sans-serif" font-size="14" font-style="italic" lengthAdjust="spacing" textLength="37" x="2461.75" y="744.2285">Driver</text><line style="stroke:#181818;stroke-width:0.5;" x1="2265" x2="2663" y1="754.5" y2="754.5"/><text fill="#000000" font-family="sans-serif" font-size="14" lengthAdjust="spacing" textLength="105" x="2270" y="773.0332">+chave() : String</text><text fill="#000000" font-family="sans-serif" font-size="14" lengthAdjust="spacing" textLength="353" x="2270" y="790.6426">+codigoGlobal(sComponente : String, iPino : int) : String</text><text fill="#000000" font-family="sans-serif" font-size="14" lengthAdjust="spacing" textLength="349" x="2270" y="808.252">+codigoSetup(sComponente : String, iPino : int) : String</text><text fill="#000000" font-family="sans-serif" font-size="14" lengthAdjust="spacing" textLength="388" x="2270" y="825.8613">+codigoLeituraLoop(sComponente : String, iPino : int) : String</text></g><!--class RegistroDrivers--><g id="elem_RegistroDrivers"><rect codeLine="154" fill="#F1F1F1" height="75.2188" id="RegistroDrivers" rx="2.5" ry="2.5" style="stroke:#181818;stroke-width:0.5;" width="289" x="2319.5" y="444"/><ellipse cx="2410.75" cy="460" fill="#ADD1B2" rx="11" ry="11" style="stroke:#181818;stroke-width:1.0;"/><path d="M2413.5156,455.875 Q2413.6719,455.6563 2413.8594,455.5469 Q2414.0469,455.4375 2414.2656,455.4375 Q2414.6406,455.4375 2414.875,455.7031 Q2415.1094,455.9531 2415.1094,456.5625 L2415.1094,458.0156 Q2415.1094,458.625 2414.875,458.8906 Q2414.6406,459.1563 2414.2656,459.1563 Q2413.9219,459.1563 2413.7188,458.9531 Q2413.5156,458.7656 2413.4063,458.25 Q2413.3594,457.8906 2413.1719,457.7031 Q2412.8438,457.3281 2412.2344,457.1094 Q2411.625,456.8906 2411,456.8906 Q2410.2344,456.8906 2409.5938,457.2188 Q2408.9688,457.5469 2408.4688,458.2969 Q2407.9844,459.0469 2407.9844,460.0781 L2407.9844,461.1719 Q2407.9844,462.4063 2408.875,463.2344 Q2409.7656,464.0469 2411.3594,464.0469 Q2412.2969,464.0469 2412.9531,463.7969 Q2413.3438,463.6406 2413.7656,463.2031 Q2414.0313,462.9375 2414.1719,462.8594 Q2414.3281,462.7813 2414.5313,462.7813 Q2414.8594,462.7813 2415.1094,463.0469 Q2415.375,463.2969 2415.375,463.6406 Q2415.375,463.9844 2415.0313,464.3906 Q2414.5313,464.9688 2413.7344,465.2969 Q2412.6563,465.75 2411.3594,465.75 Q2409.8438,465.75 2408.6406,465.125 Q2407.6563,464.625 2406.9688,463.5625 Q2406.2813,462.4844 2406.2813,461.2031 L2406.2813,460.0469 Q2406.2813,458.7188 2406.8906,457.5781 Q2407.5156,456.4219 2408.6094,455.8125 Q2409.7031,455.1875 2410.9375,455.1875 Q2411.6719,455.1875 2412.3125,455.3594 Q2412.9688,455.5156 2413.5156,455.875 Z " fill="#000000"/><text fill="#000000" font-family="sans-serif" font-size="14" lengthAdjust="spacing" textLength="98" x="2431.25" y="465.7285">RegistroDrivers</text><line style="stroke:#181818;stroke-width:0.5;" x1="2320.5" x2="2607.5" y1="476" y2="476"/><text fill="#000000" font-family="sans-serif" font-size="14" lengthAdjust="spacing" textLength="277" x="2325.5" y="494.5332">+registrar(oDriver : Driver) : RegistroDrivers</text><text fill="#000000" font-family="sans-serif" font-size="14" lengthAdjust="spacing" textLength="277" x="2325.5" y="512.1426">+buscar(sChave : String) : Optional&lt;Driver&gt;</text></g><!--class GeradorFirmware--><g id="elem_GeradorFirmware"><rect codeLine="161" fill="#F1F1F1" height="206.4844" id="GeradorFirmware" rx="2.5" ry="2.5" style="stroke:#181818;stroke-width:0.5;" width="377" x="2720.5" y="42"/><ellipse cx="2849.25" cy="58" fill="#ADD1B2" rx="11" ry="11" style="stroke:#181818;stroke-width:1.0;"/><path d="M2852.0156,53.875 Q2852.1719,53.6563 2852.3594,53.5469 Q2852.5469,53.4375 2852.7656,53.4375 Q2853.1406,53.4375 2853.375,53.7031 Q2853.6094,53.9531 2853.6094,54.5625 L2853.6094,56.0156 Q2853.6094,56.625 2853.375,56.8906 Q2853.1406,57.1563 2852.7656,57.1563 Q2852.4219,57.1563 2852.2188,56.9531 Q2852.0156,56.7656 2851.9063,56.25 Q2851.8594,55.8906 2851.6719,55.7031 Q2851.3438,55.3281 2850.7344,55.1094 Q2850.125,54.8906 2849.5,54.8906 Q2848.7344,54.8906 2848.0938,55.2188 Q2847.4688,55.5469 2846.9688,56.2969 Q2846.4844,57.0469 2846.4844,58.0781 L2846.4844,59.1719 Q2846.4844,60.4063 2847.375,61.2344 Q2848.2656,62.0469 2849.8594,62.0469 Q2850.7969,62.0469 2851.4531,61.7969 Q2851.8438,61.6406 2852.2656,61.2031 Q2852.5313,60.9375 2852.6719,60.8594 Q2852.8281,60.7813 2853.0313,60.7813 Q2853.3594,60.7813 2853.6094,61.0469 Q2853.875,61.2969 2853.875,61.6406 Q2853.875,61.9844 2853.5313,62.3906 Q2853.0313,62.9688 2852.2344,63.2969 Q2851.1563,63.75 2849.8594,63.75 Q2848.3438,63.75 2847.1406,63.125 Q2846.1563,62.625 2845.4688,61.5625 Q2844.7813,60.4844 2844.7813,59.2031 L2844.7813,58.0469 Q2844.7813,56.7188 2845.3906,55.5781 Q2846.0156,54.4219 2847.1094,53.8125 Q2848.2031,53.1875 2849.4375,53.1875 Q2850.1719,53.1875 2850.8125,53.3594 Q2851.4688,53.5156 2852.0156,53.875 Z " fill="#000000"/><text fill="#000000" font-family="sans-serif" font-size="14" lengthAdjust="spacing" textLength="111" x="2869.75" y="63.7285">GeradorFirmware</text><line style="stroke:#181818;stroke-width:0.5;" x1="2721.5" x2="3096.5" y1="74" y2="74"/><text fill="#000000" font-family="sans-serif" font-size="14" lengthAdjust="spacing" textLength="176" x="2726.5" y="92.5332">-oRegistro : RegistroDrivers</text><text fill="#000000" font-family="sans-serif" font-size="14" lengthAdjust="spacing" textLength="253" x="2726.5" y="110.1426">-oConfiguracao : ConfiguracaoFirmware</text><text fill="#000000" font-family="sans-serif" font-size="14" lengthAdjust="spacing" textLength="143" x="2726.5" y="127.752">-sCodigoFonte : String</text><line style="stroke:#181818;stroke-width:0.5;" x1="2721.5" x2="3096.5" y1="134.8281" y2="134.8281"/><text fill="#000000" font-family="sans-serif" font-size="14" lengthAdjust="spacing" textLength="305" x="2726.5" y="153.3613">+gerar(oProjeto : ProjetoIoT) : GeradorFirmware</text><text fill="#000000" font-family="sans-serif" font-size="14" lengthAdjust="spacing" textLength="169" x="2726.5" y="170.9707">+getCodigoFonte() : String</text><text fill="#000000" font-family="sans-serif" font-size="14" lengthAdjust="spacing" textLength="308" x="2726.5" y="188.5801">+salvarProjetoPlatformIo(oDiretorio : Path) : Path</text><text fill="#000000" font-family="sans-serif" font-size="14" lengthAdjust="spacing" text-decoration="underline" textLength="365" x="2726.5" y="206.1895">+variavelLeitura(sComponente, sMedicao : String) : String</text><text fill="#000000" font-family="sans-serif" font-size="14" lengthAdjust="spacing" text-decoration="underline" textLength="281" x="2726.5" y="223.7988">+variavelPino(sComponente : String) : String</text><text fill="#000000" font-family="sans-serif" font-size="14" lengthAdjust="spacing" text-decoration="underline" textLength="211" x="2726.5" y="241.4082">+sanitizar(sNome : String) : String</text></g><!--class ConfiguracaoFirmware--><g id="elem_ConfiguracaoFirmware"><rect codeLine="173" fill="#F1F1F1" height="259.3125" id="ConfiguracaoFirmware" rx="2.5" ry="2.5" style="stroke:#181818;stroke-width:0.5;" width="376" x="2720" y="352"/><ellipse cx="2832.25" cy="368" fill="#ADD1B2" rx="11" ry="11" style="stroke:#181818;stroke-width:1.0;"/><path d="M2835.0156,363.875 Q2835.1719,363.6563 2835.3594,363.5469 Q2835.5469,363.4375 2835.7656,363.4375 Q2836.1406,363.4375 2836.375,363.7031 Q2836.6094,363.9531 2836.6094,364.5625 L2836.6094,366.0156 Q2836.6094,366.625 2836.375,366.8906 Q2836.1406,367.1563 2835.7656,367.1563 Q2835.4219,367.1563 2835.2188,366.9531 Q2835.0156,366.7656 2834.9063,366.25 Q2834.8594,365.8906 2834.6719,365.7031 Q2834.3438,365.3281 2833.7344,365.1094 Q2833.125,364.8906 2832.5,364.8906 Q2831.7344,364.8906 2831.0938,365.2188 Q2830.4688,365.5469 2829.9688,366.2969 Q2829.4844,367.0469 2829.4844,368.0781 L2829.4844,369.1719 Q2829.4844,370.4063 2830.375,371.2344 Q2831.2656,372.0469 2832.8594,372.0469 Q2833.7969,372.0469 2834.4531,371.7969 Q2834.8438,371.6406 2835.2656,371.2031 Q2835.5313,370.9375 2835.6719,370.8594 Q2835.8281,370.7813 2836.0313,370.7813 Q2836.3594,370.7813 2836.6094,371.0469 Q2836.875,371.2969 2836.875,371.6406 Q2836.875,371.9844 2836.5313,372.3906 Q2836.0313,372.9688 2835.2344,373.2969 Q2834.1563,373.75 2832.8594,373.75 Q2831.3438,373.75 2830.1406,373.125 Q2829.1563,372.625 2828.4688,371.5625 Q2827.7813,370.4844 2827.7813,369.2031 L2827.7813,368.0469 Q2827.7813,366.7188 2828.3906,365.5781 Q2829.0156,364.4219 2830.1094,363.8125 Q2831.2031,363.1875 2832.4375,363.1875 Q2833.1719,363.1875 2833.8125,363.3594 Q2834.4688,363.5156 2835.0156,363.875 Z " fill="#000000"/><text fill="#000000" font-family="sans-serif" font-size="14" lengthAdjust="spacing" textLength="143" x="2852.75" y="373.7285">ConfiguracaoFirmware</text><line style="stroke:#181818;stroke-width:0.5;" x1="2721" x2="3095" y1="384" y2="384"/><text fill="#000000" font-family="sans-serif" font-size="14" lengthAdjust="spacing" textLength="98" x="2726" y="402.5332">-iBaudRate : int</text><text fill="#000000" font-family="sans-serif" font-size="14" lengthAdjust="spacing" textLength="89" x="2726" y="420.1426">-iDelayMs : int</text><text fill="#000000" font-family="sans-serif" font-size="14" lengthAdjust="spacing" textLength="129" x="2726" y="437.752">-sPlataforma : String</text><text fill="#000000" font-family="sans-serif" font-size="14" lengthAdjust="spacing" textLength="96" x="2726" y="455.3613">-sPlaca : String</text><text fill="#000000" font-family="sans-serif" font-size="14" lengthAdjust="spacing" textLength="152" x="2726" y="472.9707">-aIncludes : List&lt;String&gt;</text><text fill="#000000" font-family="sans-serif" font-size="14" lengthAdjust="spacing" textLength="152" x="2726" y="490.5801">-aLibDeps : List&lt;String&gt;</text><line style="stroke:#181818;stroke-width:0.5;" x1="2721" x2="3095" y1="497.6563" y2="497.6563"/><text fill="#000000" font-family="sans-serif" font-size="14" lengthAdjust="spacing" textLength="328" x="2726" y="516.1895">+baudRate(iBaudRate : int) : ConfiguracaoFirmware</text><text fill="#000000" font-family="sans-serif" font-size="14" lengthAdjust="spacing" textLength="309" x="2726" y="533.7988">+delayMs(iDelayMs : int) : ConfiguracaoFirmware</text><text fill="#000000" font-family="sans-serif" font-size="14" lengthAdjust="spacing" textLength="364" x="2726" y="551.4082">+plataforma(sPlataforma : String) : ConfiguracaoFirmware</text><text fill="#000000" font-family="sans-serif" font-size="14" lengthAdjust="spacing" textLength="298" x="2726" y="569.0176">+placa(sPlaca : String) : ConfiguracaoFirmware</text><text fill="#000000" font-family="sans-serif" font-size="14" lengthAdjust="spacing" textLength="343" x="2726" y="586.627">+addInclude(sInclude : String) : ConfiguracaoFirmware</text><text fill="#000000" font-family="sans-serif" font-size="14" lengthAdjust="spacing" textLength="343" x="2726" y="604.2363">+addLibDep(sLibDep : String) : ConfiguracaoFirmware</text></g><!--reverse link ComponenteHardware to Controlador--><g id="link_ComponenteHardware_Controlador"><path codeLine="190" d="M377.0914,1338.8226 C331.0414,1370.6426 292.61,1397.2 254.08,1423.82 " fill="none" id="ComponenteHardware-backto-Controlador" style="stroke:#181818;stroke-width:1.0;"/><polygon fill="none" points="391.9,1328.59,373.6805,1333.8864,380.5023,1343.7588,391.9,1328.59" style="stroke:#181818;stroke-width:1.0;"/></g><!--reverse link ComponenteHardware to Sensor--><g id="link_ComponenteHardware_Sensor"><path codeLine="191" d="M605.8492,1338.4957 C648.9992,1366.9357 683.14,1389.43 721.95,1415 " fill="none" id="ComponenteHardware-backto-Sensor" style="stroke:#181818;stroke-width:1.0;"/><polygon fill="none" points="590.82,1328.59,602.5473,1343.5054,609.1511,1333.486,590.82,1328.59" style="stroke:#181818;stroke-width:1.0;"/></g><!--reverse link ComponenteHardware to Atuador--><g id="link_ComponenteHardware_Atuador"><path codeLine="192" d="M489,1346.59 C489,1382.03 489,1405.61 489,1432.47 " fill="none" id="ComponenteHardware-backto-Atuador" style="stroke:#181818;stroke-width:1.0;"/><polygon fill="none" points="489,1328.59,483,1346.59,495,1346.59,489,1328.59" style="stroke:#181818;stroke-width:1.0;"/></g><!--reverse link Condicao to CondicaoComparacao--><g id="link_Condicao_CondicaoComparacao"><path codeLine="194" d="M1761,1085.11 C1761,1120.61 1761,1152.4 1761,1192.44 " fill="none" id="Condicao-backto-CondicaoComparacao" style="stroke:#181818;stroke-width:1.0;stroke-dasharray:7.0,7.0;"/><polygon fill="none" points="1761,1067.11,1755,1085.11,1767,1085.11,1761,1067.11" style="stroke:#181818;stroke-width:1.0;"/></g><!--reverse link Condicao to CondicaoComposta--><g id="link_Condicao_CondicaoComposta"><path codeLine="195" d="M1842.1312,1077.3098 C1907.9712,1122.5898 1992.79,1180.94 2053.67,1222.82 " fill="none" id="Condicao-backto-CondicaoComposta" style="stroke:#181818;stroke-width:1.0;stroke-dasharray:7.0,7.0;"/><polygon fill="none" points="1827.3,1067.11,1838.7312,1082.2535,1845.5311,1072.3661,1827.3,1067.11" style="stroke:#181818;stroke-width:1.0;"/></g><!--reverse link Acao to AcaoDefinirEstado--><g id="link_Acao_AcaoDefinirEstado"><path codeLine="196" d="M1363.1703,1061.3033 C1317.8303,1100.6833 1248.11,1161.25 1192.14,1209.87 " fill="none" id="Acao-backto-AcaoDefinirEstado" style="stroke:#181818;stroke-width:1.0;stroke-dasharray:7.0,7.0;"/><polygon fill="none" points="1376.76,1049.5,1359.2358,1056.7734,1367.1047,1065.8333,1376.76,1049.5" style="stroke:#181818;stroke-width:1.0;"/></g><!--reverse link ProjetoIoT to Connection--><g id="link_ProjetoIoT_Connection"><path codeLine="198" d="M1632.2597,501.9809 C1321.9197,530.3109 795.98,590.58 626,687 C534.13,739.11 458.82,833.41 409.37,908.32 " fill="none" id="ProjetoIoT-backto-Connection" style="stroke:#181818;stroke-width:1.0;"/><polygon fill="#181818" points="1644.21,500.89,1637.8712,497.452,1632.2597,501.9809,1638.5985,505.4189,1644.21,500.89" style="stroke:#181818;stroke-width:1.0;"/><text fill="#000000" font-family="sans-serif" font-size="13" lengthAdjust="spacing" textLength="7" x="1629.6536" y="515.2837">1</text><text fill="#000000" font-family="sans-serif" font-size="13" lengthAdjust="spacing" textLength="20" x="393.023" y="897.7492">0..*</text></g><!--reverse link Principal to ConfiguracaoFirmware--><g id="link_Principal_ConfiguracaoFirmware"><path codeLine="199" d="M2109.5247,163.6682 C2270.0347,182.9082 2492.29,222.47 2680,308 C2706.2,319.94 2732.23,335.32 2756.82,351.97 " fill="none" id="Principal-backto-ConfiguracaoFirmware" style="stroke:#181818;stroke-width:1.0;"/><polygon fill="#181818" points="2097.61,162.24,2103.0913,166.9257,2109.5247,163.6682,2104.0434,158.9825,2097.61,162.24" style="stroke:#181818;stroke-width:1.0;"/><text fill="#000000" font-family="sans-serif" font-size="13" lengthAdjust="spacing" textLength="7" x="2105.6725" y="160.1267">1</text><text fill="#000000" font-family="sans-serif" font-size="13" lengthAdjust="spacing" textLength="7" x="2740.3942" y="341.0856">1</text></g><!--reverse link Principal to RegistroDrivers--><g id="link_Principal_RegistroDrivers"><path codeLine="200" d="M2060.4325,236.8229 C2174.2225,305.5329 2318.9,392.89 2403.23,443.8 " fill="none" id="Principal-backto-RegistroDrivers" style="stroke:#181818;stroke-width:1.0;"/><polygon fill="#181818" points="2050.16,230.62,2053.2286,237.1456,2060.4325,236.8229,2057.3639,230.2973,2050.16,230.62" style="stroke:#181818;stroke-width:1.0;"/><text fill="#000000" font-family="sans-serif" font-size="13" lengthAdjust="spacing" textLength="7" x="2054.9042" y="252.1643">1</text><text fill="#000000" font-family="sans-serif" font-size="13" lengthAdjust="spacing" textLength="7" x="2384.7819" y="433.1666">1</text></g><!--reverse link ProjetoIoT to Controlador--><g id="link_ProjetoIoT_Controlador"><path codeLine="202" d="M1632.4316,515.8281 C1406.2416,550.8881 1089.86,610.91 987,687 C722.21,882.87 880.42,1132.13 616,1328.5 C522.53,1397.92 471.26,1351.11 361,1388.5 C332.01,1398.33 301.12,1411.54 274.29,1423.96 " fill="none" id="ProjetoIoT-backto-Controlador" style="stroke:#181818;stroke-width:1.0;"/><polygon fill="none" points="1644.29,513.99,1637.7481,510.9562,1632.4316,515.8281,1638.9735,518.8618,1644.29,513.99" style="stroke:#181818;stroke-width:1.0;"/><text fill="#000000" font-family="sans-serif" font-size="13" lengthAdjust="spacing" textLength="7" x="1629.7362" y="528.8136">1</text><text fill="#000000" font-family="sans-serif" font-size="13" lengthAdjust="spacing" textLength="7" x="280.1575" y="1413.0709">1</text></g><!--reverse link ProjetoIoT to ComponenteHardware--><g id="link_ProjetoIoT_ComponenteHardware"><path codeLine="203" d="M1632.4151,502.2082 C1352.5651,529.1082 909.03,585.95 775,687 C687.72,752.8 565.67,1055.62 513.84,1192.27 " fill="none" id="ProjetoIoT-backto-ComponenteHardware" style="stroke:#181818;stroke-width:1.0;"/><polygon fill="none" points="1644.36,501.06,1638.0048,497.6524,1632.4151,502.2082,1638.7703,505.6157,1644.36,501.06" style="stroke:#181818;stroke-width:1.0;"/><text fill="#000000" font-family="sans-serif" font-size="13" lengthAdjust="spacing" textLength="7" x="1629.8085" y="498.9343">1</text><text fill="#000000" font-family="sans-serif" font-size="13" lengthAdjust="spacing" textLength="20" x="495.4631" y="1181.4441">0..*</text></g><!--reverse link ProjetoIoT to Regra--><g id="link_ProjetoIoT_Regra"><path codeLine="204" d="M1802.174,666.4588 C1791.744,694.3288 1786,709.69 1778.08,730.84 " fill="none" id="ProjetoIoT-backto-Regra" style="stroke:#181818;stroke-width:1.0;"/><polygon fill="none" points="1806.38,655.22,1800.5308,659.4374,1802.174,666.4588,1808.0233,662.2414,1806.38,655.22" style="stroke:#181818;stroke-width:1.0;"/><text fill="#000000" font-family="sans-serif" font-size="13" lengthAdjust="spacing" textLength="7" x="1796.2933" y="676.9491">1</text><text fill="#000000" font-family="sans-serif" font-size="13" lengthAdjust="spacing" textLength="20" x="1759.1641" y="720.0054">0..*</text></g><!--reverse link Controlador to Porta--><g id="link_Controlador_Porta"><path codeLine="205" d="M183.6781,1510.3444 C173.4881,1538.5144 163.53,1566 153.32,1594.22 " fill="none" id="Controlador-backto-Porta" style="stroke:#181818;stroke-width:1.0;"/><polygon fill="none" points="187.76,1499.06,181.9576,1503.3416,183.6781,1510.3444,189.4805,1506.0628,187.76,1499.06" style="stroke:#181818;stroke-width:1.0;"/><text fill="#000000" font-family="sans-serif" font-size="13" lengthAdjust="spacing" textLength="7" x="177.7782" y="1520.6823">1</text><text fill="#000000" font-family="sans-serif" font-size="13" lengthAdjust="spacing" textLength="20" x="133.9114" y="1583.5724">0..*</text></g><!--reverse link Sensor to Medicao--><g id="link_Sensor_Medicao"><path codeLine="206" d="M778.6772,1520.0697 C776.7472,1547.1597 777.85,1569.1 780.27,1594.43 " fill="none" id="Sensor-backto-Medicao" style="stroke:#181818;stroke-width:1.0;"/><polygon fill="none" points="779.53,1508.1,775.1137,1513.8006,778.6772,1520.0697,783.0935,1514.3691,779.53,1508.1" style="stroke:#181818;stroke-width:1.0;"/><text fill="#000000" font-family="sans-serif" font-size="13" lengthAdjust="spacing" textLength="7" x="770.4248" y="1529.31">1</text><text fill="#000000" font-family="sans-serif" font-size="13" lengthAdjust="spacing" textLength="20" x="756.4479" y="1583.5354">0..*</text></g><!--reverse link Sensor to Medicao--><g id="link_Sensor_Medicao"><path codeLine="223" d="M804.0467,1520.0664 C806.0767,1547.1564 804.92,1569.1 802.36,1594.43 " fill="none" id="Sensor-backto-Medicao-1" style="stroke:#181818;stroke-width:1.0;"/><polygon fill="none" points="803.15,1508.1,799.6095,1514.3821,804.0467,1520.0664,807.5872,1513.7843,803.15,1508.1" style="stroke:#181818;stroke-width:1.0;"/><text fill="#000000" font-family="sans-serif" font-size="13" lengthAdjust="spacing" textLength="20" x="783.4523" y="1529.31">0..*</text><text fill="#000000" font-family="sans-serif" font-size="13" lengthAdjust="spacing" textLength="20" x="782.6108" y="1583.5354">1..*</text></g><!--reverse link Regra to Condicao--><g id="link_Regra_Condicao"><path codeLine="207" d="M1761,836.11 C1761,878.96 1761,930.74 1761,973.66 " fill="none" id="Regra-backto-Condicao" style="stroke:#181818;stroke-width:1.0;"/><polygon fill="none" points="1761,824.11,1757,830.11,1761,836.11,1765,830.11,1761,824.11" style="stroke:#181818;stroke-width:1.0;"/><text fill="#000000" font-family="sans-serif" font-size="13" lengthAdjust="spacing" textLength="7" x="1753.5078" y="845.3215">1</text><text fill="#000000" font-family="sans-serif" font-size="13" lengthAdjust="spacing" textLength="7" x="1753.4859" y="963.1389">1</text></g><!--reverse link Regra to Acao--><g id="link_Regra_Acao"><path codeLine="208" d="M1678.5093,830.5489 C1658.4293,843.4289 1646.81,851.11 1627,864.5 C1563.32,907.54 1490.87,959.71 1447.6,991.22 " fill="none" id="Regra-backto-Acao" style="stroke:#181818;stroke-width:1.0;"/><polygon fill="none" points="1688.61,824.07,1681.4,823.9426,1678.5093,830.5489,1685.7193,830.6764,1688.61,824.07" style="stroke:#181818;stroke-width:1.0;"/><text fill="#000000" font-family="sans-serif" font-size="13" lengthAdjust="spacing" textLength="7" x="1670.938" y="845.2758">1</text><text fill="#000000" font-family="sans-serif" font-size="13" lengthAdjust="spacing" textLength="20" x="1433.8562" y="980.6413">1..*</text></g><!--reverse link RegistroDrivers to Driver--><g id="link_RegistroDrivers_Driver"><path codeLine="209" d="M2464,531.14 C2464,582.25 2464,663.29 2464,722.39 " fill="none" id="RegistroDrivers-backto-Driver" style="stroke:#181818;stroke-width:1.0;"/><polygon fill="none" points="2464,519.14,2460,525.14,2464,531.14,2468,525.14,2464,519.14" style="stroke:#181818;stroke-width:1.0;"/><text fill="#000000" font-family="sans-serif" font-size="13" lengthAdjust="spacing" textLength="7" x="2456.3766" y="540.7766">1</text><text fill="#000000" font-family="sans-serif" font-size="13" lengthAdjust="spacing" textLength="20" x="2442.7188" y="711.7936">0..*</text></g><!--reverse link Medicao to TipoValor--><g id="link_Medicao_TipoValor"><path codeLine="211" d="M791,1681.57 C791,1699.81 791,1710.06 791,1729.4 " fill="none" id="Medicao-backto-TipoValor" style="stroke:#181818;stroke-width:1.0;"/><polygon fill="none" points="791,1669.57,787,1675.57,791,1681.57,795,1675.57,791,1669.57" style="stroke:#181818;stroke-width:1.0;"/><text fill="#000000" font-family="sans-serif" font-size="13" lengthAdjust="spacing" textLength="20" x="769.2188" y="1691.1941">0..*</text><text fill="#000000" font-family="sans-serif" font-size="13" lengthAdjust="spacing" textLength="7" x="783.4641" y="1718.5746">1</text></g><!--reverse link CondicaoComposta to OperadorLogico--><g id="link_CondicaoComposta_OperadorLogico"><path codeLine="212" d="M2107,1310.46 C2107,1346.21 2107,1388.06 2107,1423.73 " fill="none" id="CondicaoComposta-backto-OperadorLogico" style="stroke:#181818;stroke-width:1.0;"/><polygon fill="none" points="2107,1298.46,2103,1304.46,2107,1310.46,2111,1304.46,2107,1298.46" style="stroke:#181818;stroke-width:1.0;"/><text fill="#000000" font-family="sans-serif" font-size="13" lengthAdjust="spacing" textLength="20" x="2085.3438" y="1319.5782">0..*</text><text fill="#000000" font-family="sans-serif" font-size="13" lengthAdjust="spacing" textLength="7" x="2099.3766" y="1413.0842">1</text></g><!--reverse link CondicaoComparacao to OperadorComparacao--><g id="link_CondicaoComparacao_OperadorComparacao"><path codeLine="213" d="M1761,1340.59 C1761,1359.78 1761,1368.76 1761,1388.24 " fill="none" id="CondicaoComparacao-backto-OperadorComparacao" style="stroke:#181818;stroke-width:1.0;"/><polygon fill="none" points="1761,1328.59,1757,1334.59,1761,1340.59,1765,1334.59,1761,1328.59" style="stroke:#181818;stroke-width:1.0;"/><text fill="#000000" font-family="sans-serif" font-size="13" lengthAdjust="spacing" textLength="20" x="1739.9688" y="1349.9476">0..*</text><text fill="#000000" font-family="sans-serif" font-size="13" lengthAdjust="spacing" textLength="7" x="1753.6391" y="1377.391">1</text></g><!--reverse link GeradorFirmware to RegistroDrivers--><g id="link_GeradorFirmware_RegistroDrivers"><path codeLine="214" d="M2763.4777,255.3902 C2675.1677,321.7702 2574.89,397.14 2512.78,443.83 " fill="none" id="GeradorFirmware-backto-RegistroDrivers" style="stroke:#181818;stroke-width:1.0;"/><polygon fill="none" points="2773.07,248.18,2765.8704,248.5877,2763.4777,255.3902,2770.6773,254.9826,2773.07,248.18" style="stroke:#181818;stroke-width:1.0;"/><text fill="#000000" font-family="sans-serif" font-size="13" lengthAdjust="spacing" textLength="20" x="2742.3533" y="269.835">0..*</text><text fill="#000000" font-family="sans-serif" font-size="13" lengthAdjust="spacing" textLength="7" x="2513.8455" y="433.202">1</text></g><!--reverse link GeradorFirmware to ConfiguracaoFirmware--><g id="link_GeradorFirmware_ConfiguracaoFirmware"><path codeLine="215" d="M2908.6569,260.18 C2908.5669,292.84 2908.49,317.43 2908.38,351.73 " fill="none" id="GeradorFirmware-backto-ConfiguracaoFirmware" style="stroke:#181818;stroke-width:1.0;"/><polygon fill="none" points="2908.69,248.18,2904.6735,254.169,2908.6569,260.18,2912.6735,254.191,2908.69,248.18" style="stroke:#181818;stroke-width:1.0;"/><text fill="#000000" font-family="sans-serif" font-size="13" lengthAdjust="spacing" textLength="20" x="2887.9329" y="269.835">0..*</text><text fill="#000000" font-family="sans-serif" font-size="13" lengthAdjust="spacing" textLength="7" x="2901.1996" y="341.2614">1</text></g><!--link GeradorFirmware to ProjetoIoT--><g id="link_GeradorFirmware_ProjetoIoT"><path codeLine="217" d="M2720.36,182.32 C2586.62,210.46 2403.95,253.76 2248,308 C2198.46,325.23 2152.0497,344.1861 2103.1697,365.9861 " fill="none" id="GeradorFirmware-to-ProjetoIoT" style="stroke:#181818;stroke-width:1.0;stroke-dasharray:7.0,7.0;"/><polygon fill="#181818" points="2097.69,368.43,2107.5388,368.4173,2102.2564,366.3934,2104.2803,361.111,2097.69,368.43" style="stroke:#181818;stroke-width:1.0;"/></g><!--link Principal to GeradorFirmware--><g id="link_Principal_GeradorFirmware"><path codeLine="218" d="M2097.8,145 C2305.35,145 2506.91,145 2714.46,145 " fill="none" id="Principal-to-GeradorFirmware" style="stroke:#181818;stroke-width:1.0;stroke-dasharray:7.0,7.0;"/><polygon fill="#181818" points="2720.46,145,2711.46,141,2715.46,145,2711.46,149,2720.46,145" style="stroke:#181818;stroke-width:1.0;"/></g><!--link Principal to ProjetoIoT--><g id="link_Principal_ProjetoIoT"><path codeLine="219" d="M1900.11,230.84 C1897.36,254.45 1894.9537,275.0302 1891.8437,301.7502 " fill="none" id="Principal-to-ProjetoIoT" style="stroke:#181818;stroke-width:1.0;stroke-dasharray:7.0,7.0;"/><polygon fill="#181818" points="1891.15,307.71,1896.1637,299.2328,1891.7281,302.7435,1888.2173,298.3079,1891.15,307.71" style="stroke:#181818;stroke-width:1.0;"/></g><!--reverse link Condicao to AcaoAlternarEstado--><g id="link_Condicao_AcaoAlternarEstado"><path codeLine="221" d="M1678.6378,1077.1909 C1613.7578,1121.0509 1531.5,1176.67 1469.18,1218.81 " fill="none" id="Condicao-backto-AcaoAlternarEstado" style="stroke:#181818;stroke-width:1.0;stroke-dasharray:7.0,7.0;"/><polygon fill="none" points="1693.55,1067.11,1675.2775,1072.2202,1681.9981,1082.1617,1693.55,1067.11" style="stroke:#181818;stroke-width:1.0;"/></g><!--reverse link Acao to AcaoAlternarEstado--><g id="link_Acao_AcaoAlternarEstado"><path codeLine="222" d="M1409,1067.74 C1409,1109.72 1409,1170.83 1409,1218.99 " fill="none" id="Acao-backto-AcaoAlternarEstado" style="stroke:#181818;stroke-width:1.0;stroke-dasharray:7.0,7.0;"/><polygon fill="none" points="1409,1049.74,1403,1067.74,1415,1067.74,1409,1049.74" style="stroke:#181818;stroke-width:1.0;"/></g><!--reverse link CondicaoComparacao to Sensor--><g id="link_CondicaoComparacao_Sensor"><path codeLine="224" d="M1539.6767,1327.4274 C1533.8367,1328.7274 1539.74,1327.35 1534,1328.5 C1294.22,1376.64 1225.09,1332.59 987,1388.5 C958.41,1395.21 928.3,1404.89 900.48,1414.97 " fill="none" id="CondicaoComparacao-backto-Sensor" style="stroke:#181818;stroke-width:1.0;"/><polygon fill="none" points="1551.39,1324.82,1544.6642,1322.2193,1539.6767,1327.4274,1546.4025,1330.0281,1551.39,1324.82" style="stroke:#181818;stroke-width:1.0;"/><text fill="#000000" font-family="sans-serif" font-size="13" lengthAdjust="spacing" textLength="20" x="1523.4978" y="1324.3446">0..*</text><text fill="#000000" font-family="sans-serif" font-size="13" lengthAdjust="spacing" textLength="7" x="909.7082" y="1404.1553">1</text></g><!--reverse link AcaoDefinirEstado to Atuador--><g id="link_AcaoDefinirEstado_Atuador"><path codeLine="225" d="M1005.3938,1315.197 C987.5938,1321.627 980.6,1323.6 963,1328.5 C813.08,1370.29 764.69,1336.51 618,1388.5 C587.3,1399.38 555.31,1417.19 530.87,1432.37 " fill="none" id="AcaoDefinirEstado-backto-Atuador" style="stroke:#181818;stroke-width:1.0;"/><polygon fill="none" points="1016.68,1311.12,1009.6779,1309.3964,1005.3938,1315.197,1012.3959,1316.9206,1016.68,1311.12" style="stroke:#181818;stroke-width:1.0;"/><text fill="#000000" font-family="sans-serif" font-size="13" lengthAdjust="spacing" textLength="20" x="980.239" y="1332.1593">0..*</text><text fill="#000000" font-family="sans-serif" font-size="13" lengthAdjust="spacing" textLength="7" x="532.2634" y="1421.8241">1</text></g><!--reverse link AcaoAlternarEstado to Atuador--><g id="link_AcaoAlternarEstado_Atuador"><path codeLine="226" d="M1334.9853,1307.9162 C1316.1753,1318.1762 1305.62,1322.29 1285,1328.5 C1000,1414.34 902.4,1300.71 618,1388.5 C586.14,1398.33 553.37,1416.75 528.83,1432.49 " fill="none" id="AcaoAlternarEstado-backto-Atuador" style="stroke:#181818;stroke-width:1.0;"/><polygon fill="none" points="1345.52,1302.17,1338.3372,1301.5315,1334.9853,1307.9162,1342.168,1308.5547,1345.52,1302.17" style="stroke:#181818;stroke-width:1.0;"/><text fill="#000000" font-family="sans-serif" font-size="13" lengthAdjust="spacing" textLength="20" x="1313.8091" y="1323.5919">0..*</text><text fill="#000000" font-family="sans-serif" font-size="13" lengthAdjust="spacing" textLength="7" x="538.8501" y="1421.5124">1</text></g><!--reverse link Connection to ComponenteHardware--><g id="link_Connection_ComponenteHardware"><path codeLine="227" d="M418.5718,1143.0971 C430.8718,1163.4271 437.14,1173.78 448.35,1192.32 " fill="none" id="Connection-backto-ComponenteHardware" style="stroke:#181818;stroke-width:1.0;"/><polygon fill="none" points="412.36,1132.83,412.0435,1140.0342,418.5718,1143.0971,418.8883,1135.893,412.36,1132.83" style="stroke:#181818;stroke-width:1.0;"/><text fill="#000000" font-family="sans-serif" font-size="13" lengthAdjust="spacing" textLength="20" x="396.0346" y="1154.042">0..*</text><text fill="#000000" font-family="sans-serif" font-size="13" lengthAdjust="spacing" textLength="7" x="436.5211" y="1181.4996">1</text></g><!--reverse link Connection to Controlador--><g id="link_Connection_Controlador"><path codeLine="228" d="M304.83,1143.9623 C273.46,1239.6023 233.8,1360.51 213.02,1423.85 " fill="none" id="Connection-backto-Controlador" style="stroke:#181818;stroke-width:1.0;"/><polygon fill="none" points="308.57,1132.56,302.8992,1137.0145,304.83,1143.9623,310.5008,1139.5078,308.57,1132.56" style="stroke:#181818;stroke-width:1.0;"/><text fill="#000000" font-family="sans-serif" font-size="13" lengthAdjust="spacing" textLength="20" x="285.4505" y="1154.1303">0..*</text><text fill="#000000" font-family="sans-serif" font-size="13" lengthAdjust="spacing" textLength="7" x="207.5376" y="1413.2255">1</text></g><!--reverse link Connection to Porta--><g id="link_Connection_Porta"><path codeLine="229" d="M209.0968,1141.1374 C142.6568,1207.7674 76.48,1290.04 41,1388.5 C15.38,1459.58 6.83,1491.11 41,1558.5 C50.39,1577.02 66.99,1591.96 83.95,1603.34 " fill="none" id="Connection-backto-Porta" style="stroke:#181818;stroke-width:1.0;"/><polygon fill="none" points="217.57,1132.64,210.501,1134.0643,209.0968,1141.1374,216.1659,1139.7131,217.57,1132.64" style="stroke:#181818;stroke-width:1.0;"/><text fill="#000000" font-family="sans-serif" font-size="13" lengthAdjust="spacing" textLength="20" x="188.3364" y="1154.2157">0..*</text><text fill="#000000" font-family="sans-serif" font-size="13" lengthAdjust="spacing" textLength="7" x="68.948" y="1595.9179">1</text></g><!--SRC=[hHZRJkCuz3rV4NLVqW6gcLU4a3gqi94AHPJPrvMRcEATrCuw3hip3F- -Tdo_X7P6Yv1g-zmlFkSutLU4Mq31FgyQq7LpnYZQzWoM5S4Rz1tc7xDdLCCSxblsBT_3_HRIBijQK7q5EvXFS5yra4poropF9OlydfA_82CbUPId_E-ikoDxc9_d6yuUx_GfkIAOKTA0cb0ET7OQ0roHVKimn0ns76E5EdPXZtu7jFu7K7Zfe6CCAuO8Tj3raKLxW3iA3CQmqy0JgtxXQptL69NLinWtOSgtbfUbDVOKWN6nNRFPR8mBXlyIoS8rsEv6IUbWUc5TC2n6qRSzQkeY3Tj19XmqGBt02eZZYG4X3gx4ikwO7WwmOgmjTad280jKQQF5yWFT8amMiEYiE1jglbgtWXreBaeEsK4wqBrbRfuZNA4MD3RD2PV01L6oeEY5NnJfNlV4JVqdjEifg02HxZ7RQqJtmcgjw6l704FLMyvDAZ7Vu0gga2WDdE0AOO1AQOMIob7b8aaaVMgawsYDgiDz0QW-B8ZA2oz318iRZiQ37LEp1Q8SZIAo0QW6qXB0dgL_tvpYygp2hyeBs0hRAgRy7wV9eNhJ6NT4wJgUoCgL4Uotpi12lWBtXQ0wp1YtLcXLJpYRUqAPk9FoLxX3BDITJ5ySHM9IUzX7ARg1k0jatS8QLKFfq2lEObW2eYHAAarJZzle8-uSvaOlnJdIRCvwtmtlY56uqVqJ9ZksfK9-WkxvBUUd2BEGNgbsY0DvHAtW87x-04siXwqzJY7mYagSgSTtG2BDL3cXbR8o2qVKQUxouxk1nlGjfz8bKhqBAtO07dYDrNgFxwYvn_S5AyoOBLqESR-teJ0E_xnUhvRpkxNQbdUFo_91xnRBg_9slehhoz2CEVizrrNFC3nH87q25HIQ1Gd2o5NR9bp0g-2wvwL9cZCGJPsroQJ-C5wGMCEvy2UGZS8ccBhQmIKy8pghpQKsa7KhA_BGs-JISjPOjVJhULwJVjj09zy2LGgb0Syo9OYlDD_JNFAPlcSIwPphcrHlHNQydBZ3dQbOkkk7rSM6RtumT5uzujWB-8GmeakkL-swMjSghn89o7Q5TWBrFDyIqa20jRI8Mw6PdEQAQ9hIODvmxJ4uNeMJcCg8YYGCuuzrYHah_ku15dGcuVtq7CXCgcCcOZ-NQFCaoZZOkSDn2XhDRfTtwmTt_MTvyqNUNt4oBorKh3sekrwKryk79Iy58w9bUXcnI_Mx_X9N2jcTeXAXcfLnQVKCNbArjI8rsf6RXcn1anmuJtEdKOtHRo3hsrydNq74-4It8kIdcGHPv8suhz7mcHmxqtCmVrzq5QVeheJdqlEtfBYCW_AaHallzHcCdOdP_7yPoi-u1uLJhudhGcz4_fNHs66Qwi6WUG5KyRfl07iYT5_owsWcQZLAkoErTzKvEUAERbGkk7bmcdUsTpWpdgT1n4XapEWJQeIs0nWnz5s4tNzWZ-PSAX0sikWpwEi7C0XNSzvml80D-7RR-QUTy1iGZWFn-u33glWObBXg-jhs7GcsdnDMQBk0xGZuPAkqAm8z3xspQgb-uTjnYAervXKfKuyWhoHbTJmHg6lbeg9JYv-XbUuhElbx52LF3lwVU05U_3WxysRACHmrDes1TPlDJ5Ey-36R9KQoTn34W9FD3IWQ2hBC-LGs-JJ9Ft31au-psOU9ywZ8x7S6W_DfalPC6ZMiTg5OObaQjwLGj6RHT3-EB3k_-yW94EHuhuRP0AO7M3ct19gcGGFTN46yDXNmbiTPfakUEjO2x6ClcbW3p61MJSpi8mHE2eKzAw08utS0FPaP4T5iTkb-qhEP8m1XW_AX3bcG_V4q6kH_0DHnTmtmGd_OdUeUn_DxWASlT6BC7i5qtlMHXwChy1woMup6i8Pxy1y0]--></g></svg>